<svg _ngcontent-dnu-c2="" width="147" height="129" viewBox="0 0 147 129" fill="none" xmlns="http://www.w3.org/2000/svg"><path _ngcontent-dnu-c2="" fill-rule="evenodd" clip-rule="evenodd" d="M60.7141 61.2939C54.2938 71.4737 48.3824 83.0019 43.0807 95.7484C41.1438 100.405 40.078 104.013 39.6459 106.738C39.2191 109.43 39.4383 111.032 39.8863 112.046C40.3728 113.149 41.3044 113.972 42.7571 114.354C44.1882 114.73 45.9842 114.638 48.0099 114.168C52.0556 113.229 56.8534 110.821 61.1324 108.022C65.4271 105.214 69.1052 102.074 70.9447 99.7378C73.6604 96.2893 75.7744 91.5831 76.5383 86.6776C77.2826 81.8981 76.7778 76.7641 74.0787 72.0404C70.5047 65.7854 65.7752 62.4995 60.7141 61.2939ZM58.3156 60.8773C52.2912 70.6955 46.7249 81.6992 41.7003 93.7794C39.7093 98.5662 38.4948 102.545 37.9742 105.829C37.4482 109.145 37.6036 111.973 38.5373 114.089C39.4325 116.116 40.8897 117.122 42.5125 117.549C44.157 117.98 46.1233 117.858 48.2265 117.37C52.4386 116.392 57.3644 113.909 61.7126 111.065C66.0451 108.232 69.8978 104.98 71.9301 102.399C74.8663 98.6703 77.3038 93.4068 78.2125 87.5717C79.1408 81.6105 78.4395 75.2327 75.2754 69.6952C71.7425 63.5121 67.237 60.0738 62.491 58.5306C83.1366 27.0465 108.804 9.23278 136.285 9.23278C136.766 9.23278 137.156 8.51046 137.156 7.61944C137.156 6.72842 136.766 6.0061 136.285 6.0061C107.836 6.0061 81.3118 24.8138 60.1635 57.9252C60.127 57.918 60.0905 57.9109 60.054 57.9039C54.4292 56.8231 48.5832 58.1251 43.5958 60.5629C35.5213 64.5096 25.7846 72.5804 17.5009 83.781C9.23087 94.9632 2.29975 109.416 0.033969 126.2C-0.0827254 127.065 0.201073 127.94 0.667851 128.157C1.13463 128.373 1.60763 127.847 1.72432 126.983C3.84915 111.243 10.4136 97.3592 18.5284 86.3869C26.6297 75.4329 36.1671 67.5311 44.0404 63.6828C48.4033 61.5502 53.4226 60.3302 58.3156 60.8773Z" fill="black"></path><path _ngcontent-dnu-c2="" fill-rule="evenodd" clip-rule="evenodd" d="M135.304 1.50518C135.57 0.762796 136.111 0.560414 136.512 1.05315C138.623 3.64828 140.695 5.1211 143.167 6.77137C143.165 6.77012 143.164 6.76939 143.164 6.76935C143.164 6.76925 143.174 6.77564 143.205 6.79382L143.335 6.87117C143.442 6.93504 143.586 7.02153 143.748 7.12392C144.07 7.32609 144.483 7.60032 144.848 7.89517C145.03 8.04182 145.217 8.20712 145.381 8.38507C145.518 8.53336 145.745 8.79851 145.905 9.19663C145.991 9.40939 146.119 9.81207 146.114 10.3594C146.109 10.9692 145.943 11.4241 145.774 11.6983C145.624 11.943 145.458 12.071 145.343 12.143C145.219 12.2206 145.088 12.2723 144.96 12.3092C143.178 12.8233 141.379 13.0267 139.618 13.1944C139.401 13.2151 139.185 13.2352 138.969 13.2552C137.421 13.3993 135.905 13.5403 134.403 13.8583C134.227 13.8956 133.346 14.1628 132.496 14.4473C132.077 14.5874 131.684 14.7259 131.406 14.8349C131.31 14.8729 131.236 14.9041 131.183 14.928C130.945 15.1495 130.656 15.1677 130.4 14.9307C130.327 14.8628 130.071 14.6055 129.96 13.9939C129.831 13.2769 130.004 12.7109 130.1 12.4837C130.191 12.2662 130.29 12.1454 130.326 12.1034C130.373 12.0481 130.414 12.0108 130.439 11.9896C130.524 11.9169 130.611 11.871 130.652 11.8501C130.757 11.7957 130.896 11.7368 131.044 11.6786C131.348 11.5592 131.763 11.4138 132.186 11.272C133.021 10.9927 133.962 10.7041 134.205 10.6525C135.766 10.322 137.341 10.1756 138.885 10.0323C139.1 10.0123 139.314 9.99238 139.528 9.97202C140.471 9.88222 141.402 9.78387 142.322 9.63718C139.943 8.04223 137.771 6.47377 135.548 3.74156C135.148 3.24883 135.038 2.24757 135.304 1.50518ZM131.106 14.9661C131.105 14.9661 131.107 14.9651 131.111 14.9631C131.107 14.9651 131.106 14.9661 131.106 14.9661Z" fill="black"></path></svg>