<svg version="1.1" xmlns="http://www.w3.org/2000/svg" viewBox="0 0 1537.6740737287896 743.454183641215" width="1537.6740737287896" height="743.454183641215">
  <!-- svg-source:excalidraw -->
  
  <defs>
    <style>
      @font-face {
        font-family: "Virgil";
        src: url("https://excalidraw.com/Virgil.woff2");
      }
      @font-face {
        font-family: "Cascadia";
        src: url("https://excalidraw.com/Cascadia.woff2");
      }
    </style>
  </defs>
  <rect x="0" y="0" width="1537.6740737287896" height="743.454183641215" fill="#ffffff"></rect><g stroke-linecap="round" transform="translate(10 10) rotate(0 261.8628938987466 361.7270918206075)"><path d="M0 0 C200.93 0, 401.86 0, 523.73 0 M0 0 C165.6 0, 331.2 0, 523.73 0 M523.73 0 C523.73 251.96, 523.73 503.92, 523.73 723.45 M523.73 0 C523.73 217.69, 523.73 435.39, 523.73 723.45 M523.73 723.45 C382.92 723.45, 242.11 723.45, 0 723.45 M523.73 723.45 C416.08 723.45, 308.44 723.45, 0 723.45 M0 723.45 C0 498.57, 0 273.68, 0 0 M0 723.45 C0 538.79, 0 354.13, 0 0" stroke="#000000" stroke-width="1" fill="none"></path></g><g stroke-linecap="round" transform="translate(904.0840880094356 12.426999533609859) rotate(270 261.8628938987466 361.7270918206075)"><path d="M0 0 C153.78 0, 307.57 0, 523.73 0 M0 0 C116.56 0, 233.13 0, 523.73 0 M523.73 0 C523.73 268.19, 523.73 536.38, 523.73 723.45 M523.73 0 C523.73 188.07, 523.73 376.15, 523.73 723.45 M523.73 723.45 C405.87 723.45, 288.01 723.45, 0 723.45 M523.73 723.45 C331.07 723.45, 138.42 723.45, 0 723.45 M0 723.45 C0 485.93, 0 248.41, 0 0 M0 723.45 C0 459.27, 0 195.08, 0 0" stroke="#000000" stroke-width="1" fill="none"></path></g><g stroke-linecap="round"><g transform="translate(10.106118811167619 104.07926601113107) rotate(0 261.2945697925709 0)"><path d="M0 0 C195.75 0, 391.5 0, 522.59 0 M0 0 C138.95 0, 277.9 0, 522.59 0" stroke="#000000" stroke-width="1" fill="none"></path></g></g><g transform="translate(35.963662756480176 35.557592879258976) rotate(0 50 22.5)"><text x="0" y="32" font-family="Virgil, Segoe UI Emoji" font-size="36px" fill="#000000" text-anchor="start" style="white-space: pre;" direction="ltr">HTML</text></g><g stroke-linecap="round" transform="translate(40.62874537825826 135.55267685389572) rotate(0 123.36101825420667 8.438039926382231)"><path d="M0 0 C0 0, 0 0, 0 0 M0 0 C0 0, 0 0, 0 0 M-0.26 6.4 C1.48 4.39, 3.22 2.39, 4.99 0.36 M-0.26 6.4 C1.45 4.43, 3.16 2.46, 4.99 0.36 M0.13 12.04 C3.96 7.64, 7.79 3.23, 10.63 -0.03 M0.13 12.04 C3.5 8.17, 6.86 4.3, 10.63 -0.03 M0.53 17.68 C6.42 10.9, 12.32 4.12, 15.62 0.33 M0.53 17.68 C4.12 13.55, 7.71 9.43, 15.62 0.33 M6.17 17.29 C9.85 13.06, 13.53 8.82, 21.26 -0.07 M6.17 17.29 C11.22 11.48, 16.28 5.66, 21.26 -0.07 M11.16 17.65 C16.1 11.96, 21.05 6.27, 26.25 0.29 M11.16 17.65 C17.18 10.72, 23.21 3.78, 26.25 0.29 M16.8 17.25 C20.02 13.55, 23.24 9.84, 31.89 -0.1 M16.8 17.25 C22.08 11.18, 27.37 5.1, 31.89 -0.1 M21.79 17.61 C25.44 13.42, 29.08 9.22, 36.88 0.26 M21.79 17.61 C25.37 13.49, 28.95 9.37, 36.88 0.26 M27.43 17.22 C32.29 11.64, 37.14 6.05, 42.52 -0.14 M27.43 17.22 C31.09 13.01, 34.75 8.8, 42.52 -0.14 M32.42 17.58 C37.42 11.83, 42.42 6.08, 47.51 0.22 M32.42 17.58 C36.62 12.75, 40.82 7.92, 47.51 0.22 M38.06 17.19 C42.85 11.68, 47.63 6.17, 53.15 -0.17 M38.06 17.19 C43.93 10.44, 49.8 3.69, 53.15 -0.17 M43.05 17.55 C47.5 12.43, 51.94 7.31, 58.14 0.19 M43.05 17.55 C48.31 11.49, 53.58 5.43, 58.14 0.19 M48.69 17.15 C52.44 12.84, 56.18 8.53, 63.78 -0.21 M48.69 17.15 C52.7 12.54, 56.7 7.93, 63.78 -0.21 M53.68 17.51 C58.67 11.77, 63.65 6.04, 68.77 0.15 M53.68 17.51 C59.35 10.99, 65.02 4.46, 68.77 0.15 M59.32 17.12 C63.3 12.54, 67.27 7.97, 74.41 -0.24 M59.32 17.12 C63.08 12.79, 66.84 8.47, 74.41 -0.24 M64.31 17.48 C69.4 11.62, 74.48 5.77, 79.4 0.12 M64.31 17.48 C70.12 10.79, 75.94 4.1, 79.4 0.12 M69.3 17.84 C72.62 14.01, 75.94 10.19, 85.04 -0.28 M69.3 17.84 C72.7 13.92, 76.11 10, 85.04 -0.28 M74.94 17.44 C79.66 12.01, 84.38 6.58, 90.03 0.08 M74.94 17.44 C79.53 12.16, 84.12 6.88, 90.03 0.08 M79.93 17.8 C83.7 13.46, 87.47 9.12, 95.67 -0.31 M79.93 17.8 C85.33 11.58, 90.74 5.36, 95.67 -0.31 M85.57 17.41 C90.95 11.22, 96.32 5.04, 100.66 0.05 M85.57 17.41 C90.99 11.18, 96.4 4.94, 100.66 0.05 M90.56 17.77 C96.81 10.57, 103.07 3.37, 106.3 -0.34 M90.56 17.77 C95.4 12.2, 100.24 6.63, 106.3 -0.34 M96.2 17.37 C100.21 12.76, 104.22 8.14, 111.29 0.02 M96.2 17.37 C100.37 12.58, 104.53 7.78, 111.29 0.02 M101.19 17.73 C104.71 13.68, 108.22 9.64, 116.27 0.38 M101.19 17.73 C105.48 12.8, 109.77 7.86, 116.27 0.38 M106.83 17.34 C111.96 11.44, 117.09 5.54, 121.92 -0.02 M106.83 17.34 C111.09 12.44, 115.35 7.54, 121.92 -0.02 M111.82 17.7 C117.78 10.84, 123.74 3.98, 126.91 0.34 M111.82 17.7 C117.12 11.6, 122.42 5.5, 126.91 0.34 M117.46 17.3 C123.15 10.76, 128.84 4.22, 132.55 -0.05 M117.46 17.3 C122.05 12.03, 126.63 6.75, 132.55 -0.05 M122.45 17.66 C125.94 13.64, 129.44 9.61, 137.54 0.31 M122.45 17.66 C126.74 12.73, 131.03 7.79, 137.54 0.31 M128.09 17.27 C132.24 12.49, 136.4 7.71, 143.18 -0.09 M128.09 17.27 C133.64 10.88, 139.19 4.5, 143.18 -0.09 M133.08 17.63 C138.99 10.83, 144.9 4.03, 148.17 0.27 M133.08 17.63 C138.52 11.37, 143.96 5.11, 148.17 0.27 M138.72 17.24 C142.24 13.18, 145.77 9.12, 153.81 -0.12 M138.72 17.24 C141.74 13.76, 144.77 10.28, 153.81 -0.12 M143.71 17.6 C147.07 13.72, 150.44 9.85, 158.8 0.24 M143.71 17.6 C149.08 11.41, 154.45 5.23, 158.8 0.24 M149.35 17.2 C154.63 11.12, 159.92 5.04, 164.44 -0.16 M149.35 17.2 C152.79 13.24, 156.23 9.28, 164.44 -0.16 M154.34 17.56 C159.99 11.06, 165.63 4.56, 169.43 0.2 M154.34 17.56 C159.58 11.53, 164.83 5.49, 169.43 0.2 M159.98 17.17 C163.35 13.29, 166.72 9.41, 175.07 -0.19 M159.98 17.17 C165.68 10.61, 171.38 4.06, 175.07 -0.19 M164.97 17.53 C170.91 10.68, 176.86 3.84, 180.06 0.17 M164.97 17.53 C169.67 12.11, 174.38 6.7, 180.06 0.17 M170.61 17.13 C175.92 11.02, 181.23 4.92, 185.7 -0.23 M170.61 17.13 C174.77 12.35, 178.92 7.57, 185.7 -0.23 M175.6 17.49 C180.59 11.75, 185.58 6.01, 190.69 0.13 M175.6 17.49 C180.5 11.85, 185.41 6.2, 190.69 0.13 M180.58 17.85 C185.84 11.81, 191.1 5.76, 196.33 -0.26 M180.58 17.85 C184.49 13.35, 188.4 8.86, 196.33 -0.26 M186.23 17.46 C191.25 11.68, 196.27 5.91, 201.32 0.1 M186.23 17.46 C191.72 11.14, 197.22 4.82, 201.32 0.1 M191.21 17.82 C195.43 12.97, 199.65 8.11, 206.96 -0.3 M191.21 17.82 C196.29 11.97, 201.37 6.13, 206.96 -0.3 M196.86 17.42 C200.61 13.11, 204.35 8.8, 211.95 0.06 M196.86 17.42 C201.46 12.12, 206.07 6.82, 211.95 0.06 M201.84 17.78 C207.39 11.4, 212.94 5.02, 217.59 -0.33 M201.84 17.78 C205.39 13.71, 208.93 9.63, 217.59 -0.33 M207.49 17.39 C210.9 13.46, 214.32 9.53, 222.58 0.03 M207.49 17.39 C212.4 11.74, 217.31 6.09, 222.58 0.03 M212.47 17.75 C216.97 12.57, 221.47 7.4, 228.22 -0.36 M212.47 17.75 C218.49 10.83, 224.5 3.91, 228.22 -0.36 M218.12 17.35 C222.87 11.89, 227.62 6.43, 233.21 0 M218.12 17.35 C222.66 12.13, 227.2 6.9, 233.21 0 M223.1 17.71 C227.12 13.09, 231.14 8.46, 238.19 0.36 M223.1 17.71 C227.93 12.16, 232.77 6.6, 238.19 0.36 M228.75 17.32 C232.71 12.77, 236.66 8.21, 243.84 -0.04 M228.75 17.32 C231.89 13.7, 235.04 10.08, 243.84 -0.04 M233.73 17.68 C239.41 11.16, 245.08 4.63, 248.17 1.08 M233.73 17.68 C237.57 13.26, 241.41 8.84, 248.17 1.08 M239.38 17.29 C242.08 14.17, 244.79 11.06, 247.91 7.47 M239.38 17.29 C242.14 14.1, 244.91 10.92, 247.91 7.47 M244.36 17.65 C245.4 16.45, 246.44 15.26, 248.3 13.12 M244.36 17.65 C245.73 16.08, 247.09 14.51, 248.3 13.12" stroke="#fa5252" stroke-width="0.5" fill="none"></path><path d="M0 0 C70.2 0, 140.39 0, 246.72 0 M0 0 C53.22 0, 106.44 0, 246.72 0 M246.72 0 C246.72 6.03, 246.72 12.05, 246.72 16.88 M246.72 0 C246.72 4.16, 246.72 8.33, 246.72 16.88 M246.72 16.88 C152.12 16.88, 57.52 16.88, 0 16.88 M246.72 16.88 C175.81 16.88, 104.89 16.88, 0 16.88 M0 16.88 C0 10.91, 0 4.94, 0 0 M0 16.88 C0 11.17, 0 5.46, 0 0" stroke="#000000" stroke-width="1" fill="none"></path></g><g stroke-linecap="round" transform="translate(67.26772712405148 169.88396629199673) rotate(0 56.091566819411014 7.85346397986774)"><path d="M0 0 C0 0, 0 0, 0 0 M0 0 C0 0, 0 0, 0 0 M-0.26 6.4 C1.33 4.57, 2.92 2.74, 4.99 0.36 M-0.26 6.4 C1.53 4.34, 3.32 2.27, 4.99 0.36 M0.13 12.04 C3.13 8.6, 6.12 5.16, 10.63 -0.03 M0.13 12.04 C3 8.74, 5.87 5.44, 10.63 -0.03 M1.18 16.93 C5.34 12.15, 9.49 7.37, 15.62 0.33 M1.18 16.93 C6.56 10.74, 11.94 4.55, 15.62 0.33 M6.83 16.53 C10.46 12.35, 14.1 8.17, 21.26 -0.07 M6.83 16.53 C11.01 11.72, 15.19 6.91, 21.26 -0.07 M11.81 16.89 C15.95 12.14, 20.08 7.39, 26.25 0.29 M11.81 16.89 C14.79 13.47, 17.76 10.05, 26.25 0.29 M17.46 16.5 C21.34 12.03, 25.23 7.56, 31.89 -0.1 M17.46 16.5 C20.84 12.61, 24.22 8.72, 31.89 -0.1 M22.44 16.86 C26.01 12.76, 29.58 8.66, 36.88 0.26 M22.44 16.86 C25.6 13.23, 28.75 9.61, 36.88 0.26 M28.09 16.47 C31.48 12.56, 34.88 8.65, 42.52 -0.14 M28.09 16.47 C32.9 10.93, 37.72 5.39, 42.52 -0.14 M33.07 16.83 C36.23 13.2, 39.38 9.58, 47.51 0.22 M33.07 16.83 C37.2 12.07, 41.33 7.32, 47.51 0.22 M38.06 17.19 C43.33 11.13, 48.59 5.07, 53.15 -0.17 M38.06 17.19 C42.8 11.74, 47.53 6.29, 53.15 -0.17 M43.7 16.79 C48.74 11, 53.77 5.21, 58.14 0.19 M43.7 16.79 C49.27 10.39, 54.84 3.98, 58.14 0.19 M48.69 17.15 C53.34 11.8, 57.99 6.45, 63.78 -0.21 M48.69 17.15 C51.74 13.65, 54.79 10.14, 63.78 -0.21 M54.33 16.76 C58.47 12, 62.61 7.24, 68.77 0.15 M54.33 16.76 C60.02 10.22, 65.71 3.68, 68.77 0.15 M59.32 17.12 C64.03 11.71, 68.73 6.29, 74.41 -0.24 M59.32 17.12 C64.22 11.49, 69.11 5.86, 74.41 -0.24 M64.96 16.72 C70.45 10.41, 75.94 4.09, 79.4 0.12 M64.96 16.72 C69.11 11.95, 73.25 7.19, 79.4 0.12 M69.95 17.08 C73.84 12.61, 77.73 8.13, 85.04 -0.28 M69.95 17.08 C74.59 11.74, 79.23 6.4, 85.04 -0.28 M75.59 16.69 C79.61 12.06, 83.63 7.44, 90.03 0.08 M75.59 16.69 C80.53 11.01, 85.47 5.33, 90.03 0.08 M80.58 17.05 C85.79 11.06, 91 5.06, 95.67 -0.31 M80.58 17.05 C84.78 12.22, 88.98 7.39, 95.67 -0.31 M86.22 16.65 C90.98 11.18, 95.74 5.71, 100.66 0.05 M86.22 16.65 C91.06 11.09, 95.9 5.52, 100.66 0.05 M91.21 17.01 C95.32 12.29, 99.42 7.57, 106.3 -0.34 M91.21 17.01 C95.18 12.45, 99.15 7.88, 106.3 -0.34 M96.85 16.62 C102.36 10.28, 107.87 3.94, 111.29 0.02 M96.85 16.62 C101.81 10.92, 106.76 5.23, 111.29 0.02 M101.84 16.98 C104.95 13.41, 108.05 9.83, 114.96 1.88 M101.84 16.98 C106.93 11.12, 112.03 5.26, 114.96 1.88 M107.48 16.58 C110.25 13.4, 113.02 10.21, 114.7 8.28 M107.48 16.58 C109.95 13.74, 112.42 10.9, 114.7 8.28" stroke="#fa5252" stroke-width="0.5" fill="none"></path><path d="M0 0 C22.77 0, 45.54 0, 112.18 0 M0 0 C25.41 0, 50.82 0, 112.18 0 M112.18 0 C112.18 4.41, 112.18 8.83, 112.18 15.71 M112.18 0 C112.18 4.39, 112.18 8.79, 112.18 15.71 M112.18 15.71 C88.73 15.71, 65.28 15.71, 0 15.71 M112.18 15.71 C87.7 15.71, 63.22 15.71, 0 15.71 M0 15.71 C0 11.25, 0 6.8, 0 0 M0 15.71 C0 12, 0 8.29, 0 0" stroke="#000000" stroke-width="1" fill="none"></path></g><g stroke-linecap="round" transform="translate(71.46901167933993 201.35796531543423) rotate(0 53.4691678560697 7.132310133713929)"><path d="M0 0 C0 0, 0 0, 0 0 M0 0 C0 0, 0 0, 0 0 M-0.26 6.4 C1.47 4.4, 3.21 2.4, 4.99 0.36 M-0.26 6.4 C1.7 4.14, 3.66 1.89, 4.99 0.36 M0.13 12.04 C3.49 8.18, 6.85 4.32, 10.63 -0.03 M0.13 12.04 C2.24 9.61, 4.35 7.19, 10.63 -0.03 M1.84 16.17 C5.64 11.8, 9.44 7.43, 15.62 0.33 M1.84 16.17 C4.89 12.66, 7.95 9.15, 15.62 0.33 M7.48 15.78 C10.87 11.89, 14.25 7.99, 21.26 -0.07 M7.48 15.78 C11.33 11.35, 15.18 6.93, 21.26 -0.07 M12.47 16.14 C15.84 12.26, 19.21 8.38, 26.25 0.29 M12.47 16.14 C17.28 10.6, 22.09 5.07, 26.25 0.29 M18.11 15.75 C21.66 11.67, 25.2 7.59, 31.89 -0.1 M18.11 15.75 C22.77 10.39, 27.43 5.03, 31.89 -0.1 M23.1 16.11 C26.35 12.37, 29.6 8.63, 36.88 0.26 M23.1 16.11 C27 11.62, 30.9 7.13, 36.88 0.26 M28.74 15.71 C32.91 10.91, 37.09 6.11, 42.52 -0.14 M28.74 15.71 C33.62 10.11, 38.49 4.5, 42.52 -0.14 M33.73 16.07 C38.52 10.56, 43.32 5.04, 47.51 0.22 M33.73 16.07 C37.17 12.11, 40.61 8.15, 47.51 0.22 M39.37 15.68 C42.55 12.02, 45.74 8.36, 53.15 -0.17 M39.37 15.68 C42.17 12.46, 44.96 9.25, 53.15 -0.17 M44.36 16.04 C49.59 10.03, 54.81 4.01, 58.14 0.19 M44.36 16.04 C49.54 10.08, 54.71 4.13, 58.14 0.19 M50 15.64 C55.38 9.46, 60.75 3.28, 63.78 -0.21 M50 15.64 C53.61 11.49, 57.23 7.33, 63.78 -0.21 M54.99 16 C58.13 12.39, 61.28 8.77, 68.77 0.15 M54.99 16 C58.95 11.45, 62.91 6.89, 68.77 0.15 M59.98 16.36 C63.27 12.57, 66.57 8.78, 74.41 -0.24 M59.98 16.36 C62.98 12.91, 65.98 9.45, 74.41 -0.24 M65.62 15.97 C69.66 11.32, 73.7 6.67, 79.4 0.12 M65.62 15.97 C69.91 11.03, 74.21 6.09, 79.4 0.12 M70.61 16.33 C74.86 11.44, 79.11 6.55, 85.04 -0.28 M70.61 16.33 C73.74 12.72, 76.88 9.12, 85.04 -0.28 M76.25 15.93 C80.01 11.61, 83.77 7.29, 90.03 0.08 M76.25 15.93 C80.04 11.58, 83.82 7.22, 90.03 0.08 M81.24 16.29 C84.66 12.36, 88.08 8.42, 95.67 -0.31 M81.24 16.29 C86.52 10.22, 91.8 4.14, 95.67 -0.31 M86.88 15.9 C91.91 10.11, 96.94 4.32, 100.66 0.05 M86.88 15.9 C91.06 11.09, 95.24 6.28, 100.66 0.05 M91.87 16.26 C94.81 12.87, 97.76 9.48, 106.3 -0.34 M91.87 16.26 C95.21 12.42, 98.54 8.58, 106.3 -0.34 M97.51 15.86 C100.69 12.21, 103.87 8.55, 109.32 2.28 M97.51 15.86 C100.16 12.82, 102.81 9.77, 109.32 2.28 M102.5 16.22 C104.26 14.2, 106.02 12.17, 109.71 7.92 M102.5 16.22 C104.59 13.82, 106.67 11.42, 109.71 7.92" stroke="#fa5252" stroke-width="0.5" fill="none"></path><path d="M0 0 C29.01 0, 58.02 0, 106.94 0 M0 0 C40.94 0, 81.88 0, 106.94 0 M106.94 0 C106.94 3.12, 106.94 6.24, 106.94 14.26 M106.94 0 C106.94 4.42, 106.94 8.84, 106.94 14.26 M106.94 14.26 C82.24 14.26, 57.54 14.26, 0 14.26 M106.94 14.26 C66.37 14.26, 25.81 14.26, 0 14.26 M0 14.26 C0 9.83, 0 5.39, 0 0 M0 14.26 C0 8.87, 0 3.47, 0 0" stroke="#000000" stroke-width="1" fill="none"></path></g><g stroke-linecap="round" transform="translate(74.67049342513315 229.08412404440054) rotate(0 36.34178748497595 7.886258638822085)"><path d="M0 0 C0 0, 0 0, 0 0 M0 0 C0 0, 0 0, 0 0 M-0.26 6.4 C1.38 4.51, 3.02 2.62, 4.99 0.36 M-0.26 6.4 C1.69 4.16, 3.64 1.91, 4.99 0.36 M0.13 12.04 C3.52 8.14, 6.91 4.24, 10.63 -0.03 M0.13 12.04 C4.29 7.26, 8.45 2.47, 10.63 -0.03 M1.18 16.93 C6.45 10.87, 11.71 4.82, 15.62 0.33 M1.18 16.93 C4.38 13.26, 7.57 9.59, 15.62 0.33 M6.83 16.53 C12.48 10.03, 18.14 3.52, 21.26 -0.07 M6.83 16.53 C10.92 11.82, 15.02 7.11, 21.26 -0.07 M11.81 16.89 C16.51 11.49, 21.21 6.08, 26.25 0.29 M11.81 16.89 C16.91 11.04, 22 5.18, 26.25 0.29 M17.46 16.5 C21.16 12.24, 24.86 7.98, 31.89 -0.1 M17.46 16.5 C22.2 11.04, 26.95 5.58, 31.89 -0.1 M22.44 16.86 C25.96 12.81, 29.49 8.76, 36.88 0.26 M22.44 16.86 C25.95 12.83, 29.46 8.79, 36.88 0.26 M27.43 17.22 C32.19 11.74, 36.95 6.26, 42.52 -0.14 M27.43 17.22 C31.33 12.74, 35.22 8.26, 42.52 -0.14 M33.07 16.83 C36.95 12.37, 40.82 7.92, 47.51 0.22 M33.07 16.83 C36.95 12.37, 40.82 7.92, 47.51 0.22 M38.06 17.19 C42.09 12.55, 46.13 7.91, 53.15 -0.17 M38.06 17.19 C42.57 12, 47.07 6.82, 53.15 -0.17 M43.7 16.79 C47.27 12.69, 50.83 8.59, 58.14 0.19 M43.7 16.79 C48.11 11.72, 52.51 6.66, 58.14 0.19 M48.69 17.15 C53.37 11.77, 58.05 6.39, 63.78 -0.21 M48.69 17.15 C54.37 10.62, 60.04 4.09, 63.78 -0.21 M54.33 16.76 C59.07 11.31, 63.81 5.86, 68.77 0.15 M54.33 16.76 C59.1 11.27, 63.87 5.79, 68.77 0.15 M59.32 17.12 C64.26 11.43, 69.2 5.75, 73.75 0.51 M59.32 17.12 C63.91 11.84, 68.5 6.56, 73.75 0.51 M64.96 16.72 C68.04 13.18, 71.12 9.64, 73.49 6.91 M64.96 16.72 C66.84 14.56, 68.72 12.4, 73.49 6.91 M69.95 17.08 C71.14 15.71, 72.33 14.35, 73.23 13.31 M69.95 17.08 C70.77 16.14, 71.59 15.19, 73.23 13.31" stroke="#fa5252" stroke-width="0.5" fill="none"></path><path d="M0 0 C14.98 0, 29.96 0, 72.68 0 M0 0 C22.89 0, 45.79 0, 72.68 0 M72.68 0 C72.68 3.83, 72.68 7.66, 72.68 15.77 M72.68 0 C72.68 4.92, 72.68 9.83, 72.68 15.77 M72.68 15.77 C52.45 15.77, 32.22 15.77, 0 15.77 M72.68 15.77 C51.71 15.77, 30.74 15.77, 0 15.77 M0 15.77 C0 12.27, 0 8.77, 0 0 M0 15.77 C0 12.19, 0 8.61, 0 0" stroke="#000000" stroke-width="1" fill="none"></path></g><g stroke-linecap="round" transform="translate(45.97185685662362 257.3839662919966) rotate(0 86.93453275240381 8.317847618689939)"><path d="M0 0 C0 0, 0 0, 0 0 M0 0 C0 0, 0 0, 0 0 M-0.26 6.4 C0.87 5.09, 2.01 3.78, 4.99 0.36 M-0.26 6.4 C1.39 4.49, 3.05 2.59, 4.99 0.36 M0.13 12.04 C2.41 9.42, 4.69 6.8, 10.63 -0.03 M0.13 12.04 C4.16 7.41, 8.18 2.79, 10.63 -0.03 M0.53 17.68 C4.06 13.62, 7.59 9.56, 15.62 0.33 M0.53 17.68 C4.14 13.53, 7.74 9.38, 15.62 0.33 M6.17 17.29 C11.09 11.64, 16 5.98, 21.26 -0.07 M6.17 17.29 C10.92 11.83, 15.66 6.37, 21.26 -0.07 M11.16 17.65 C16 12.08, 20.83 6.52, 26.25 0.29 M11.16 17.65 C16.77 11.19, 22.38 4.73, 26.25 0.29 M16.8 17.25 C20.05 13.52, 23.3 9.78, 31.89 -0.1 M16.8 17.25 C21.41 11.95, 26.03 6.64, 31.89 -0.1 M21.79 17.61 C27.45 11.11, 33.11 4.6, 36.88 0.26 M21.79 17.61 C26.93 11.7, 32.07 5.78, 36.88 0.26 M27.43 17.22 C32.47 11.42, 37.51 5.62, 42.52 -0.14 M27.43 17.22 C30.96 13.16, 34.48 9.11, 42.52 -0.14 M32.42 17.58 C38.39 10.72, 44.35 3.85, 47.51 0.22 M32.42 17.58 C36.52 12.86, 40.63 8.14, 47.51 0.22 M38.06 17.19 C41.54 13.18, 45.03 9.17, 53.15 -0.17 M38.06 17.19 C42.21 12.42, 46.35 7.65, 53.15 -0.17 M43.05 17.55 C47.28 12.68, 51.51 7.81, 58.14 0.19 M43.05 17.55 C48.97 10.74, 54.89 3.93, 58.14 0.19 M48.69 17.15 C54.03 11.01, 59.37 4.87, 63.78 -0.21 M48.69 17.15 C53.3 11.84, 57.92 6.54, 63.78 -0.21 M53.68 17.51 C57.13 13.55, 60.57 9.58, 68.77 0.15 M53.68 17.51 C57.12 13.55, 60.56 9.6, 68.77 0.15 M59.32 17.12 C63.11 12.75, 66.91 8.39, 74.41 -0.24 M59.32 17.12 C63.89 11.86, 68.47 6.6, 74.41 -0.24 M64.31 17.48 C69.41 11.61, 74.5 5.75, 79.4 0.12 M64.31 17.48 C67.41 13.9, 70.52 10.33, 79.4 0.12 M69.95 17.08 C75.57 10.62, 81.18 4.17, 85.04 -0.28 M69.95 17.08 C75.13 11.13, 80.31 5.17, 85.04 -0.28 M74.94 17.44 C78.06 13.85, 81.18 10.26, 90.03 0.08 M74.94 17.44 C78.75 13.06, 82.56 8.68, 90.03 0.08 M80.58 17.05 C84.57 12.46, 88.56 7.87, 95.67 -0.31 M80.58 17.05 C83.64 13.53, 86.7 10.01, 95.67 -0.31 M85.57 17.41 C90.62 11.6, 95.66 5.8, 100.66 0.05 M85.57 17.41 C91.52 10.56, 97.47 3.72, 100.66 0.05 M91.21 17.01 C96.89 10.48, 102.58 3.94, 106.3 -0.34 M91.21 17.01 C96.62 10.79, 102.03 4.57, 106.3 -0.34 M96.2 17.37 C101.01 11.84, 105.81 6.31, 111.29 0.02 M96.2 17.37 C101.6 11.16, 107 4.95, 111.29 0.02 M101.84 16.98 C105.56 12.71, 109.27 8.43, 116.27 0.38 M101.84 16.98 C107.42 10.56, 113 4.14, 116.27 0.38 M106.83 17.34 C110.72 12.86, 114.61 8.38, 121.92 -0.02 M106.83 17.34 C112.41 10.92, 117.99 4.5, 121.92 -0.02 M111.82 17.7 C117.17 11.54, 122.53 5.38, 126.91 0.34 M111.82 17.7 C117.31 11.38, 122.8 5.06, 126.91 0.34 M117.46 17.3 C122.75 11.21, 128.05 5.12, 132.55 -0.05 M117.46 17.3 C122.84 11.11, 128.22 4.92, 132.55 -0.05 M122.45 17.66 C125.73 13.88, 129.02 10.1, 137.54 0.31 M122.45 17.66 C126.47 13.03, 130.5 8.4, 137.54 0.31 M128.09 17.27 C132.55 12.13, 137.02 7, 143.18 -0.09 M128.09 17.27 C133.3 11.28, 138.5 5.29, 143.18 -0.09 M133.08 17.63 C137.52 12.52, 141.96 7.41, 148.17 0.27 M133.08 17.63 C138.69 11.17, 144.31 4.7, 148.17 0.27 M138.72 17.24 C143.11 12.18, 147.51 7.12, 153.81 -0.12 M138.72 17.24 C142.66 12.7, 146.61 8.16, 153.81 -0.12 M143.71 17.6 C148.73 11.81, 153.76 6.03, 158.8 0.24 M143.71 17.6 C147.58 13.14, 151.45 8.69, 158.8 0.24 M149.35 17.2 C152.9 13.11, 156.46 9.02, 164.44 -0.16 M149.35 17.2 C154.37 11.43, 159.38 5.66, 164.44 -0.16 M154.34 17.56 C160.11 10.92, 165.88 4.28, 169.43 0.2 M154.34 17.56 C160.31 10.69, 166.29 3.81, 169.43 0.2 M159.98 17.17 C164.7 11.73, 169.43 6.3, 174.41 0.56 M159.98 17.17 C164.09 12.44, 168.2 7.71, 174.41 0.56 M164.97 17.53 C168.56 13.39, 172.15 9.26, 174.15 6.96 M164.97 17.53 C168.34 13.64, 171.72 9.76, 174.15 6.96 M170.61 17.13 C171.65 15.93, 172.69 14.73, 174.55 12.6 M170.61 17.13 C171.97 15.57, 173.32 14.01, 174.55 12.6" stroke="#fa5252" stroke-width="0.5" fill="none"></path><path d="M0 0 C68.28 0, 136.56 0, 173.87 0 M0 0 C49.46 0, 98.92 0, 173.87 0 M173.87 0 C173.87 4.91, 173.87 9.82, 173.87 16.64 M173.87 0 C173.87 4.82, 173.87 9.64, 173.87 16.64 M173.87 16.64 C130.56 16.64, 87.25 16.64, 0 16.64 M173.87 16.64 C122.61 16.64, 71.35 16.64, 0 16.64 M0 16.64 C0 12.15, 0 7.66, 0 0 M0 16.64 C0 12.07, 0 7.5, 0 0" stroke="#000000" stroke-width="1" fill="none"></path></g><g stroke-linecap="round" transform="translate(67.13114922441207 289.42610871988126) rotate(0 66.94164569561292 7.443730280949524)"><path d="M0 0 C0 0, 0 0, 0 0 M0 0 C0 0, 0 0, 0 0 M-0.26 6.4 C1.19 4.73, 2.64 3.06, 4.99 0.36 M-0.26 6.4 C0.88 5.09, 2.02 3.78, 4.99 0.36 M0.13 12.04 C4.27 7.28, 8.41 2.52, 10.63 -0.03 M0.13 12.04 C3.46 8.21, 6.79 4.38, 10.63 -0.03 M1.84 16.17 C5.02 12.51, 8.21 8.85, 15.62 0.33 M1.84 16.17 C7 10.24, 12.16 4.31, 15.62 0.33 M6.83 16.53 C11.9 10.7, 16.97 4.86, 21.26 -0.07 M6.83 16.53 C9.92 12.98, 13.02 9.42, 21.26 -0.07 M12.47 16.14 C16.47 11.54, 20.46 6.94, 26.25 0.29 M12.47 16.14 C17.89 9.91, 23.31 3.67, 26.25 0.29 M17.46 16.5 C22.5 10.69, 27.55 4.89, 31.89 -0.1 M17.46 16.5 C23.22 9.87, 28.98 3.25, 31.89 -0.1 M23.1 16.11 C25.88 12.9, 28.67 9.7, 36.88 0.26 M23.1 16.11 C26.55 12.13, 30 8.16, 36.88 0.26 M28.09 16.47 C32.24 11.69, 36.39 6.92, 42.52 -0.14 M28.09 16.47 C32.39 11.52, 36.68 6.58, 42.52 -0.14 M33.73 16.07 C36.69 12.66, 39.66 9.25, 47.51 0.22 M33.73 16.07 C36.8 12.55, 39.86 9.02, 47.51 0.22 M38.72 16.43 C43.96 10.4, 49.2 4.37, 53.15 -0.17 M38.72 16.43 C42.14 12.49, 45.56 8.56, 53.15 -0.17 M44.36 16.04 C48.19 11.63, 52.02 7.22, 58.14 0.19 M44.36 16.04 C48.3 11.51, 52.23 6.98, 58.14 0.19 M49.35 16.4 C53.32 11.83, 57.29 7.26, 63.78 -0.21 M49.35 16.4 C52.86 12.35, 56.38 8.31, 63.78 -0.21 M54.99 16 C58.28 12.21, 61.58 8.43, 68.77 0.15 M54.99 16 C59.36 10.98, 63.72 5.96, 68.77 0.15 M59.98 16.36 C63.18 12.67, 66.39 8.98, 74.41 -0.24 M59.98 16.36 C63.49 12.32, 67.01 8.27, 74.41 -0.24 M64.96 16.72 C68.52 12.63, 72.08 8.54, 79.4 0.12 M64.96 16.72 C69.19 11.87, 73.41 7.01, 79.4 0.12 M70.61 16.33 C74.97 11.31, 79.34 6.29, 85.04 -0.28 M70.61 16.33 C74.42 11.95, 78.23 7.56, 85.04 -0.28 M75.59 16.69 C80.63 10.89, 85.67 5.1, 90.03 0.08 M75.59 16.69 C79.77 11.89, 83.94 7.09, 90.03 0.08 M81.24 16.29 C85.77 11.07, 90.31 5.86, 95.67 -0.31 M81.24 16.29 C84.57 12.46, 87.91 8.62, 95.67 -0.31 M86.22 16.65 C90.48 11.76, 94.74 6.86, 100.66 0.05 M86.22 16.65 C90.31 11.95, 94.4 7.24, 100.66 0.05 M91.87 16.26 C97.01 10.34, 102.16 4.42, 106.3 -0.34 M91.87 16.26 C97.23 10.09, 102.59 3.92, 106.3 -0.34 M96.85 16.62 C101.66 11.09, 106.46 5.57, 111.29 0.02 M96.85 16.62 C101.93 10.78, 107.01 4.94, 111.29 0.02 M102.5 16.22 C105.63 12.63, 108.75 9.03, 116.27 0.38 M102.5 16.22 C105.42 12.87, 108.34 9.51, 116.27 0.38 M107.48 16.58 C110.53 13.08, 113.57 9.58, 121.92 -0.02 M107.48 16.58 C111.39 12.09, 115.3 7.59, 121.92 -0.02 M113.13 16.19 C116.22 12.63, 119.32 9.07, 126.91 0.34 M113.13 16.19 C118.35 10.19, 123.56 4.18, 126.91 0.34 M118.11 16.55 C123.57 10.28, 129.02 4.01, 132.55 -0.05 M118.11 16.55 C122.69 11.28, 127.27 6.02, 132.55 -0.05 M123.76 16.16 C128.09 11.17, 132.43 6.18, 136.22 1.82 M123.76 16.16 C128.73 10.44, 133.7 4.72, 136.22 1.82 M128.74 16.52 C131.5 13.35, 134.26 10.18, 135.96 8.21 M128.74 16.52 C130.67 14.3, 132.6 12.08, 135.96 8.21" stroke="#fa5252" stroke-width="0.5" fill="none"></path><path d="M0 0 C38.19 0, 76.38 0, 133.88 0 M0 0 C51.42 0, 102.84 0, 133.88 0 M133.88 0 C133.88 5.75, 133.88 11.5, 133.88 14.89 M133.88 0 C133.88 4.19, 133.88 8.37, 133.88 14.89 M133.88 14.89 C92.42 14.89, 50.95 14.89, 0 14.89 M133.88 14.89 C83.21 14.89, 32.54 14.89, 0 14.89 M0 14.89 C0 9.27, 0 3.65, 0 0 M0 14.89 C0 11.24, 0 7.6, 0 0" stroke="#000000" stroke-width="1" fill="none"></path></g><g stroke-linecap="round" transform="translate(92.94517040830624 320.687048097886) rotate(0 106.88920241135816 8.877845177283689)"><path d="M0 0 C0 0, 0 0, 0 0 M0 0 C0 0, 0 0, 0 0 M-0.26 6.4 C1.82 4, 3.9 1.61, 4.99 0.36 M-0.26 6.4 C1.41 4.47, 3.09 2.54, 4.99 0.36 M0.13 12.04 C3.44 8.24, 6.74 4.44, 10.63 -0.03 M0.13 12.04 C4.17 7.4, 8.2 2.76, 10.63 -0.03 M0.53 17.68 C6.15 11.21, 11.78 4.74, 15.62 0.33 M0.53 17.68 C5.92 11.48, 11.31 5.27, 15.62 0.33 M5.51 18.04 C9.33 13.66, 13.14 9.28, 21.26 -0.07 M5.51 18.04 C9.57 13.38, 13.62 8.72, 21.26 -0.07 M11.16 17.65 C16.64 11.34, 22.12 5.04, 26.25 0.29 M11.16 17.65 C14.7 13.58, 18.24 9.5, 26.25 0.29 M16.14 18.01 C21.58 11.75, 27.02 5.5, 31.89 -0.1 M16.14 18.01 C21.98 11.3, 27.81 4.59, 31.89 -0.1 M21.79 17.61 C27.32 11.25, 32.85 4.89, 36.88 0.26 M21.79 17.61 C25.97 12.8, 30.16 7.98, 36.88 0.26 M26.77 17.98 C32.66 11.21, 38.54 4.44, 42.52 -0.14 M26.77 17.98 C31.49 12.55, 36.21 7.12, 42.52 -0.14 M31.76 18.34 C36.19 13.24, 40.63 8.14, 47.51 0.22 M31.76 18.34 C36.68 12.68, 41.6 7.02, 47.51 0.22 M37.41 17.94 C43.3 11.15, 49.2 4.37, 53.15 -0.17 M37.41 17.94 C42.47 12.11, 47.54 6.28, 53.15 -0.17 M42.39 18.3 C47.21 12.76, 52.03 7.21, 58.14 0.19 M42.39 18.3 C46.58 13.48, 50.77 8.67, 58.14 0.19 M48.04 17.91 C52.72 12.52, 57.4 7.13, 63.78 -0.21 M48.04 17.91 C51.4 14.04, 54.76 10.17, 63.78 -0.21 M53.02 18.27 C58.36 12.12, 63.7 5.98, 68.77 0.15 M53.02 18.27 C58.77 11.66, 64.51 5.05, 68.77 0.15 M58.67 17.87 C64.81 10.8, 70.95 3.74, 74.41 -0.24 M58.67 17.87 C62.62 13.32, 66.58 8.77, 74.41 -0.24 M63.65 18.23 C69.62 11.37, 75.58 4.51, 79.4 0.12 M63.65 18.23 C68.93 12.16, 74.22 6.08, 79.4 0.12 M69.3 17.84 C72.47 14.19, 75.64 10.54, 85.04 -0.28 M69.3 17.84 C72.62 14.01, 75.95 10.18, 85.04 -0.28 M74.28 18.2 C79.38 12.34, 84.47 6.48, 90.03 0.08 M74.28 18.2 C77.5 14.49, 80.72 10.79, 90.03 0.08 M79.93 17.8 C85.9 10.93, 91.87 4.06, 95.67 -0.31 M79.93 17.8 C85.76 11.09, 91.6 4.37, 95.67 -0.31 M84.91 18.16 C90.77 11.43, 96.63 4.69, 100.66 0.05 M84.91 18.16 C89.61 12.76, 94.31 7.36, 100.66 0.05 M90.56 17.77 C94.85 12.83, 99.15 7.89, 106.3 -0.34 M90.56 17.77 C95.37 12.23, 100.19 6.69, 106.3 -0.34 M95.54 18.13 C99.04 14.1, 102.55 10.07, 111.29 0.02 M95.54 18.13 C99.38 13.71, 103.22 9.3, 111.29 0.02 M101.19 17.73 C106.16 12.01, 111.14 6.28, 116.27 0.38 M101.19 17.73 C105.61 12.64, 110.04 7.55, 116.27 0.38 M106.17 18.09 C110.48 13.14, 114.78 8.19, 121.92 -0.02 M106.17 18.09 C111.95 11.44, 117.74 4.79, 121.92 -0.02 M111.82 17.7 C116.33 12.51, 120.84 7.31, 126.91 0.34 M111.82 17.7 C116.49 12.33, 121.16 6.96, 126.91 0.34 M116.8 18.06 C120.31 14.02, 123.83 9.98, 132.55 -0.05 M116.8 18.06 C121.45 12.71, 126.1 7.36, 132.55 -0.05 M122.45 17.66 C125.9 13.69, 129.36 9.71, 137.54 0.31 M122.45 17.66 C125.93 13.65, 129.42 9.64, 137.54 0.31 M127.43 18.02 C131.69 13.13, 135.94 8.24, 143.18 -0.09 M127.43 18.02 C133.01 11.6, 138.6 5.18, 143.18 -0.09 M133.08 17.63 C137.12 12.98, 141.16 8.32, 148.17 0.27 M133.08 17.63 C136.62 13.56, 140.16 9.49, 148.17 0.27 M138.06 17.99 C142.99 12.32, 147.92 6.65, 153.81 -0.12 M138.06 17.99 C143.91 11.26, 149.76 4.53, 153.81 -0.12 M143.05 18.35 C147.21 13.56, 151.38 8.77, 158.8 0.24 M143.05 18.35 C149.3 11.17, 155.54 3.98, 158.8 0.24 M148.69 17.96 C154.21 11.61, 159.72 5.27, 164.44 -0.16 M148.69 17.96 C152.99 13.01, 157.28 8.07, 164.44 -0.16 M153.68 18.32 C159.46 11.67, 165.23 5.03, 169.43 0.2 M153.68 18.32 C158.31 12.99, 162.93 7.67, 169.43 0.2 M159.32 17.92 C163.73 12.85, 168.14 7.78, 175.07 -0.19 M159.32 17.92 C163.81 12.76, 168.3 7.6, 175.07 -0.19 M164.31 18.28 C167.83 14.23, 171.35 10.18, 180.06 0.17 M164.31 18.28 C167.5 14.61, 170.69 10.94, 180.06 0.17 M169.95 17.89 C174.69 12.44, 179.43 6.99, 185.7 -0.23 M169.95 17.89 C175.22 11.83, 180.49 5.77, 185.7 -0.23 M174.94 18.25 C180.97 11.31, 187.01 4.36, 190.69 0.13 M174.94 18.25 C179.66 12.82, 184.38 7.39, 190.69 0.13 M180.58 17.85 C185.48 12.22, 190.38 6.58, 196.33 -0.26 M180.58 17.85 C184.49 13.36, 188.4 8.86, 196.33 -0.26 M185.57 18.21 C190.2 12.89, 194.83 7.56, 201.32 0.1 M185.57 18.21 C189.69 13.48, 193.8 8.74, 201.32 0.1 M191.21 17.82 C196.09 12.21, 200.96 6.6, 206.96 -0.3 M191.21 17.82 C196.76 11.44, 202.31 5.06, 206.96 -0.3 M196.2 18.18 C201 12.66, 205.79 7.15, 211.95 0.06 M196.2 18.18 C200.37 13.39, 204.53 8.59, 211.95 0.06 M201.84 17.78 C207.28 11.53, 212.71 5.28, 215.62 1.93 M201.84 17.78 C205.61 13.45, 209.38 9.11, 215.62 1.93 M206.83 18.14 C209.25 15.36, 211.66 12.58, 216.02 7.58 M206.83 18.14 C210.37 14.07, 213.91 10, 216.02 7.58 M212.47 17.75 C213.67 16.38, 214.86 15, 215.75 13.98 M212.47 17.75 C213.58 16.47, 214.69 15.19, 215.75 13.98" stroke="#fa5252" stroke-width="0.5" fill="none"></path><path d="M0 0 C44.16 0, 88.32 0, 213.78 0 M0 0 C72.21 0, 144.42 0, 213.78 0 M213.78 0 C213.78 7.01, 213.78 14.02, 213.78 17.76 M213.78 0 C213.78 6.27, 213.78 12.55, 213.78 17.76 M213.78 17.76 C150.59 17.76, 87.39 17.76, 0 17.76 M213.78 17.76 C138.74 17.76, 63.7 17.76, 0 17.76 M0 17.76 C0 11.77, 0 5.79, 0 0 M0 17.76 C0 12.55, 0 7.34, 0 0" stroke="#000000" stroke-width="1" fill="none"></path></g><g stroke-linecap="round" transform="translate(96.28872321780148 352.71285188394376) rotate(0 67.00446495643024 9.000760591947142)"><path d="M0 0 C0 0, 0 0, 0 0 M0 0 C0 0, 0 0, 0 0 M-0.26 6.4 C1.58 4.28, 3.42 2.16, 4.99 0.36 M-0.26 6.4 C1.29 4.61, 2.84 2.83, 4.99 0.36 M0.13 12.04 C3.36 8.33, 6.59 4.61, 10.63 -0.03 M0.13 12.04 C2.26 9.59, 4.39 7.14, 10.63 -0.03 M-0.13 18.44 C5.29 12.2, 10.72 5.96, 15.62 0.33 M-0.13 18.44 C5.38 12.1, 10.88 5.77, 15.62 0.33 M5.51 18.04 C9.28 13.72, 13.04 9.39, 21.26 -0.07 M5.51 18.04 C11.01 11.72, 16.51 5.4, 21.26 -0.07 M10.5 18.4 C15.82 12.29, 21.14 6.17, 26.25 0.29 M10.5 18.4 C15.93 12.16, 21.37 5.91, 26.25 0.29 M16.14 18.01 C21.76 11.55, 27.37 5.1, 31.89 -0.1 M16.14 18.01 C19.49 14.16, 22.84 10.31, 31.89 -0.1 M21.13 18.37 C27.1 11.5, 33.07 4.63, 36.88 0.26 M21.13 18.37 C26.77 11.88, 32.41 5.39, 36.88 0.26 M26.77 17.98 C30.85 13.29, 34.93 8.6, 42.52 -0.14 M26.77 17.98 C31.81 12.19, 36.84 6.4, 42.52 -0.14 M31.76 18.34 C35.18 14.4, 38.6 10.47, 47.51 0.22 M31.76 18.34 C37.52 11.71, 43.28 5.08, 47.51 0.22 M37.41 17.94 C41.26 13.51, 45.11 9.08, 53.15 -0.17 M37.41 17.94 C42.08 12.56, 46.76 7.18, 53.15 -0.17 M42.39 18.3 C47.12 12.86, 51.84 7.43, 58.14 0.19 M42.39 18.3 C46.24 13.87, 50.09 9.44, 58.14 0.19 M48.04 17.91 C52.95 12.26, 57.86 6.61, 63.78 -0.21 M48.04 17.91 C52.3 13, 56.57 8.09, 63.78 -0.21 M53.02 18.27 C58.95 11.45, 64.88 4.63, 68.77 0.15 M53.02 18.27 C58.86 11.55, 64.7 4.84, 68.77 0.15 M58.67 17.87 C64.33 11.36, 69.98 4.85, 74.41 -0.24 M58.67 17.87 C62.89 13.01, 67.12 8.14, 74.41 -0.24 M63.65 18.23 C68.29 12.89, 72.94 7.55, 79.4 0.12 M63.65 18.23 C67.13 14.23, 70.62 10.22, 79.4 0.12 M69.3 17.84 C75.37 10.85, 81.44 3.87, 85.04 -0.28 M69.3 17.84 C72.7 13.92, 76.1 10.01, 85.04 -0.28 M74.28 18.2 C77.49 14.51, 80.69 10.83, 90.03 0.08 M74.28 18.2 C80.14 11.45, 86 4.71, 90.03 0.08 M79.93 17.8 C84.47 12.57, 89.02 7.34, 95.67 -0.31 M79.93 17.8 C85.28 11.64, 90.63 5.49, 95.67 -0.31 M84.91 18.16 C90.44 11.81, 95.96 5.46, 100.66 0.05 M84.91 18.16 C89.65 12.72, 94.38 7.27, 100.66 0.05 M90.56 17.77 C94.77 12.93, 98.98 8.08, 106.3 -0.34 M90.56 17.77 C96.33 11.12, 102.11 4.48, 106.3 -0.34 M95.54 18.13 C100.03 12.96, 104.53 7.79, 111.29 0.02 M95.54 18.13 C101.57 11.19, 107.6 4.26, 111.29 0.02 M100.53 18.49 C103.99 14.51, 107.45 10.52, 116.27 0.38 M100.53 18.49 C105.62 12.63, 110.72 6.77, 116.27 0.38 M106.17 18.09 C110.19 13.47, 114.22 8.84, 121.92 -0.02 M106.17 18.09 C110.82 12.74, 115.48 7.39, 121.92 -0.02 M111.16 18.45 C116.59 12.21, 122.02 5.96, 126.91 0.34 M111.16 18.45 C116.45 12.36, 121.75 6.27, 126.91 0.34 M116.8 18.06 C120.1 14.26, 123.4 10.47, 132.55 -0.05 M116.8 18.06 C120.19 14.16, 123.57 10.27, 132.55 -0.05 M121.79 18.42 C126.7 12.77, 131.62 7.12, 136.22 1.82 M121.79 18.42 C125.14 14.57, 128.48 10.72, 136.22 1.82 M127.43 18.02 C130.81 14.14, 134.19 10.25, 135.96 8.21 M127.43 18.02 C129.29 15.88, 131.15 13.75, 135.96 8.21 M132.42 18.38 C133.23 17.46, 134.04 16.53, 136.36 13.86 M132.42 18.38 C133.74 16.86, 135.07 15.34, 136.36 13.86" stroke="#fa5252" stroke-width="0.5" fill="none"></path><path d="M0 0 C46.67 0, 93.34 0, 134.01 0 M0 0 C40.32 0, 80.65 0, 134.01 0 M134.01 0 C134.01 4.84, 134.01 9.68, 134.01 18 M134.01 0 C134.01 3.7, 134.01 7.4, 134.01 18 M134.01 18 C92.35 18, 50.69 18, 0 18 M134.01 18 C99.8 18, 65.6 18, 0 18 M0 18 C0 14.25, 0 10.5, 0 0 M0 18 C0 14.28, 0 10.57, 0 0" stroke="#000000" stroke-width="1" fill="none"></path></g><g stroke-linecap="round" transform="translate(71.62742138486874 389.79217880702066) rotate(0 66.38986440805286 6.678865872896665)"><path d="M0 0 C0 0, 0 0, 0 0 M0 0 C0 0, 0 0, 0 0 M-0.26 6.4 C1.73 4.1, 3.73 1.81, 4.99 0.36 M-0.26 6.4 C1.06 4.88, 2.38 3.36, 4.99 0.36 M0.13 12.04 C4.02 7.56, 7.92 3.09, 10.63 -0.03 M0.13 12.04 C2.46 9.37, 4.78 6.69, 10.63 -0.03 M2.5 15.42 C6.43 10.89, 10.37 6.36, 15.62 0.33 M2.5 15.42 C7.01 10.23, 11.52 5.04, 15.62 0.33 M7.48 15.78 C10.96 11.78, 14.44 7.78, 21.26 -0.07 M7.48 15.78 C10.59 12.2, 13.7 8.63, 21.26 -0.07 M13.13 15.39 C16.8 11.15, 20.48 6.92, 26.25 0.29 M13.13 15.39 C15.81 12.3, 18.49 9.21, 26.25 0.29 M18.11 15.75 C20.95 12.49, 23.78 9.23, 31.89 -0.1 M18.11 15.75 C22.93 10.21, 27.74 4.67, 31.89 -0.1 M23.76 15.35 C26.63 12.05, 29.5 8.75, 36.88 0.26 M23.76 15.35 C27.17 11.42, 30.59 7.49, 36.88 0.26 M28.74 15.71 C32.58 11.29, 36.43 6.87, 42.52 -0.14 M28.74 15.71 C32.45 11.45, 36.16 7.18, 42.52 -0.14 M34.39 15.32 C38.5 10.58, 42.62 5.84, 47.51 0.22 M34.39 15.32 C37.51 11.72, 40.63 8.13, 47.51 0.22 M39.37 15.68 C42.41 12.18, 45.45 8.69, 53.15 -0.17 M39.37 15.68 C44.35 9.95, 49.33 4.22, 53.15 -0.17 M45.02 15.28 C48.48 11.3, 51.95 7.31, 58.14 0.19 M45.02 15.28 C49.79 9.79, 54.57 4.29, 58.14 0.19 M50 15.64 C53.85 11.22, 57.69 6.8, 63.78 -0.21 M50 15.64 C54.17 10.84, 58.34 6.05, 63.78 -0.21 M55.65 15.25 C59.16 11.2, 62.68 7.16, 68.77 0.15 M55.65 15.25 C60.44 9.74, 65.22 4.23, 68.77 0.15 M60.63 15.61 C63.43 12.39, 66.22 9.18, 74.41 -0.24 M60.63 15.61 C64.35 11.33, 68.07 7.05, 74.41 -0.24 M66.28 15.21 C69.21 11.83, 72.15 8.45, 79.4 0.12 M66.28 15.21 C69.79 11.18, 73.29 7.14, 79.4 0.12 M71.26 15.57 C74.58 11.76, 77.89 7.95, 85.04 -0.28 M71.26 15.57 C75.94 10.2, 80.61 4.82, 85.04 -0.28 M76.91 15.18 C81.24 10.19, 85.57 5.21, 90.03 0.08 M76.91 15.18 C82.13 9.17, 87.35 3.17, 90.03 0.08 M81.89 15.54 C86.58 10.15, 91.27 4.76, 95.67 -0.31 M81.89 15.54 C85.85 10.98, 89.81 6.43, 95.67 -0.31 M87.54 15.14 C91.28 10.83, 95.03 6.53, 100.66 0.05 M87.54 15.14 C92.56 9.36, 97.59 3.58, 100.66 0.05 M92.52 15.5 C97.35 9.95, 102.18 4.39, 106.3 -0.34 M92.52 15.5 C97.91 9.31, 103.3 3.11, 106.3 -0.34 M98.17 15.11 C101.95 10.76, 105.73 6.41, 111.29 0.02 M98.17 15.11 C102.75 9.84, 107.33 4.56, 111.29 0.02 M103.15 15.47 C106.04 12.15, 108.93 8.83, 116.27 0.38 M103.15 15.47 C106.13 12.05, 109.1 8.63, 116.27 0.38 M108.14 15.83 C111.4 12.08, 114.66 8.33, 121.92 -0.02 M108.14 15.83 C112.6 10.71, 117.05 5.58, 121.92 -0.02 M113.78 15.43 C118.99 9.44, 124.2 3.45, 126.91 0.34 M113.78 15.43 C117.34 11.35, 120.89 7.26, 126.91 0.34 M118.77 15.8 C123.3 10.58, 127.84 5.37, 132.55 -0.05 M118.77 15.8 C121.96 12.12, 125.15 8.45, 132.55 -0.05 M124.41 15.4 C126.98 12.45, 129.54 9.51, 135.57 2.57 M124.41 15.4 C127.76 11.55, 131.1 7.7, 135.57 2.57 M129.4 15.76 C131.13 13.77, 132.87 11.77, 135.96 8.21 M129.4 15.76 C131.37 13.49, 133.35 11.22, 135.96 8.21" stroke="#fa5252" stroke-width="0.5" fill="none"></path><path d="M0 0 C49.22 0, 98.44 0, 132.78 0 M0 0 C34.52 0, 69.04 0, 132.78 0 M132.78 0 C132.78 3.01, 132.78 6.01, 132.78 13.36 M132.78 0 C132.78 4.91, 132.78 9.83, 132.78 13.36 M132.78 13.36 C89.19 13.36, 45.59 13.36, 0 13.36 M132.78 13.36 C84.29 13.36, 35.8 13.36, 0 13.36 M0 13.36 C0 9.07, 0 4.78, 0 0 M0 13.36 C0 10.66, 0 7.96, 0 0" stroke="#000000" stroke-width="1" fill="none"></path></g><g stroke-linecap="round" transform="translate(73.75266552549374 423.51701354259757) rotate(0 45.85336538461536 8.121197040264406)"><path d="M0 0 C0 0, 0 0, 0 0 M0 0 C0 0, 0 0, 0 0 M-0.26 6.4 C1.81 4.02, 3.88 1.64, 4.99 0.36 M-0.26 6.4 C1.44 4.44, 3.14 2.48, 4.99 0.36 M0.13 12.04 C4.02 7.57, 7.91 3.09, 10.63 -0.03 M0.13 12.04 C3.5 8.17, 6.86 4.3, 10.63 -0.03 M1.18 16.93 C4.98 12.57, 8.77 8.2, 15.62 0.33 M1.18 16.93 C6.44 10.88, 11.69 4.84, 15.62 0.33 M6.17 17.29 C10.12 12.75, 14.07 8.21, 21.26 -0.07 M6.17 17.29 C10.02 12.86, 13.87 8.44, 21.26 -0.07 M11.81 16.89 C16.52 11.48, 21.23 6.06, 26.25 0.29 M11.81 16.89 C16.5 11.5, 21.19 6.11, 26.25 0.29 M16.8 17.25 C22.6 10.58, 28.4 3.91, 31.89 -0.1 M16.8 17.25 C20.37 13.15, 23.93 9.05, 31.89 -0.1 M22.44 16.86 C27.25 11.33, 32.06 5.8, 36.88 0.26 M22.44 16.86 C27.97 10.5, 33.5 4.14, 36.88 0.26 M27.43 17.22 C31.02 13.1, 34.6 8.97, 42.52 -0.14 M27.43 17.22 C31.82 12.17, 36.21 7.13, 42.52 -0.14 M33.07 16.83 C37.86 11.32, 42.65 5.81, 47.51 0.22 M33.07 16.83 C36.19 13.25, 39.3 9.67, 47.51 0.22 M38.06 17.19 C41.37 13.38, 44.67 9.58, 53.15 -0.17 M38.06 17.19 C43.27 11.19, 48.48 5.2, 53.15 -0.17 M43.7 16.79 C47.61 12.29, 51.53 7.79, 58.14 0.19 M43.7 16.79 C49.46 10.17, 55.21 3.55, 58.14 0.19 M48.69 17.15 C52.13 13.2, 55.56 9.24, 63.78 -0.21 M48.69 17.15 C52.1 13.23, 55.52 9.3, 63.78 -0.21 M54.33 16.76 C60.09 10.14, 65.84 3.52, 68.77 0.15 M54.33 16.76 C57.35 13.29, 60.37 9.81, 68.77 0.15 M59.32 17.12 C63.27 12.57, 67.22 8.03, 74.41 -0.24 M59.32 17.12 C63.25 12.6, 67.17 8.08, 74.41 -0.24 M64.31 17.48 C68.29 12.9, 72.27 8.32, 79.4 0.12 M64.31 17.48 C67.68 13.6, 71.05 9.72, 79.4 0.12 M69.95 17.08 C73.27 13.27, 76.59 9.45, 85.04 -0.28 M69.95 17.08 C74.08 12.33, 78.21 7.58, 85.04 -0.28 M74.94 17.44 C79.68 11.99, 84.42 6.53, 90.03 0.08 M74.94 17.44 C79.74 11.92, 84.53 6.4, 90.03 0.08 M80.58 17.05 C84.52 12.52, 88.46 7.99, 93.7 1.95 M80.58 17.05 C85.75 11.11, 90.91 5.17, 93.7 1.95 M85.57 17.41 C88.12 14.47, 90.67 11.54, 94.1 7.6 M85.57 17.41 C87.87 14.76, 90.17 12.12, 94.1 7.6" stroke="#fa5252" stroke-width="0.5" fill="none"></path><path d="M0 0 C18.61 0, 37.23 0, 91.71 0 M0 0 C21.34 0, 42.68 0, 91.71 0 M91.71 0 C91.71 5.66, 91.71 11.33, 91.71 16.24 M91.71 0 C91.71 3.28, 91.71 6.56, 91.71 16.24 M91.71 16.24 C55.98 16.24, 20.25 16.24, 0 16.24 M91.71 16.24 C56.3 16.24, 20.9 16.24, 0 16.24 M0 16.24 C0 11.82, 0 7.39, 0 0 M0 16.24 C0 10.9, 0 5.55, 0 0" stroke="#000000" stroke-width="1" fill="none"></path></g><g stroke-linecap="round" transform="translate(104.49457132477266 454.8053248406745) rotate(0 80.47966590294465 8.907893254206726)"><path d="M0 0 C0 0, 0 0, 0 0 M0 0 C0 0, 0 0, 0 0 M-0.26 6.4 C1.7 4.14, 3.66 1.89, 4.99 0.36 M-0.26 6.4 C1.21 4.7, 2.69 3.01, 4.99 0.36 M0.13 12.04 C2.68 9.11, 5.22 6.19, 10.63 -0.03 M0.13 12.04 C2.36 9.48, 4.58 6.92, 10.63 -0.03 M0.53 17.68 C5.42 12.06, 10.3 6.44, 15.62 0.33 M0.53 17.68 C4.54 13.07, 8.54 8.46, 15.62 0.33 M5.51 18.04 C10.47 12.35, 15.42 6.65, 21.26 -0.07 M5.51 18.04 C9.23 13.77, 12.95 9.49, 21.26 -0.07 M11.16 17.65 C15.38 12.79, 19.6 7.94, 26.25 0.29 M11.16 17.65 C14.91 13.33, 18.66 9.02, 26.25 0.29 M16.14 18.01 C20.14 13.42, 24.13 8.83, 31.89 -0.1 M16.14 18.01 C21.81 11.5, 27.47 4.98, 31.89 -0.1 M21.13 18.37 C24.9 14.04, 28.66 9.71, 36.88 0.26 M21.13 18.37 C26.75 11.91, 32.36 5.45, 36.88 0.26 M26.77 17.98 C30.05 14.21, 33.32 10.45, 42.52 -0.14 M26.77 17.98 C32.42 11.48, 38.07 4.98, 42.52 -0.14 M31.76 18.34 C36.49 12.89, 41.22 7.45, 47.51 0.22 M31.76 18.34 C35.17 14.42, 38.57 10.51, 47.51 0.22 M37.41 17.94 C40.96 13.85, 44.52 9.76, 53.15 -0.17 M37.41 17.94 C42.29 12.32, 47.17 6.7, 53.15 -0.17 M42.39 18.3 C46.52 13.55, 50.65 8.8, 58.14 0.19 M42.39 18.3 C47.96 11.89, 53.53 5.49, 58.14 0.19 M48.04 17.91 C52.07 13.27, 56.1 8.63, 63.78 -0.21 M48.04 17.91 C54.18 10.83, 60.33 3.76, 63.78 -0.21 M53.02 18.27 C56.53 14.23, 60.04 10.19, 68.77 0.15 M53.02 18.27 C59.25 11.1, 65.49 3.93, 68.77 0.15 M58.67 17.87 C64.13 11.59, 69.59 5.3, 74.41 -0.24 M58.67 17.87 C63.01 12.87, 67.36 7.87, 74.41 -0.24 M63.65 18.23 C69.65 11.33, 75.65 4.43, 79.4 0.12 M63.65 18.23 C67.89 13.36, 72.13 8.48, 79.4 0.12 M69.3 17.84 C73.18 13.37, 77.07 8.9, 85.04 -0.28 M69.3 17.84 C74.71 11.61, 80.12 5.39, 85.04 -0.28 M74.28 18.2 C77.98 13.94, 81.68 9.69, 90.03 0.08 M74.28 18.2 C77.43 14.57, 80.59 10.95, 90.03 0.08 M79.93 17.8 C83.14 14.1, 86.36 10.4, 95.67 -0.31 M79.93 17.8 C84.17 12.91, 88.42 8.03, 95.67 -0.31 M84.91 18.16 C90.94 11.23, 96.97 4.29, 100.66 0.05 M84.91 18.16 C89.88 12.45, 94.85 6.73, 100.66 0.05 M90.56 17.77 C96.34 11.11, 102.13 4.45, 106.3 -0.34 M90.56 17.77 C94.19 13.58, 97.83 9.4, 106.3 -0.34 M95.54 18.13 C100.64 12.27, 105.73 6.41, 111.29 0.02 M95.54 18.13 C99.35 13.75, 103.15 9.37, 111.29 0.02 M101.19 17.73 C107 11.05, 112.81 4.36, 116.27 0.38 M101.19 17.73 C105.77 12.46, 110.36 7.18, 116.27 0.38 M106.17 18.09 C110.19 13.47, 114.22 8.84, 121.92 -0.02 M106.17 18.09 C110.98 12.56, 115.79 7.03, 121.92 -0.02 M111.82 17.7 C114.92 14.13, 118.02 10.56, 126.91 0.34 M111.82 17.7 C115.81 13.1, 119.81 8.5, 126.91 0.34 M116.8 18.06 C121.16 13.05, 125.52 8.03, 132.55 -0.05 M116.8 18.06 C122.05 12.03, 127.29 6, 132.55 -0.05 M122.45 17.66 C126.63 12.85, 130.82 8.03, 137.54 0.31 M122.45 17.66 C128.34 10.88, 134.24 4.1, 137.54 0.31 M127.43 18.02 C133.51 11.03, 139.59 4.04, 143.18 -0.09 M127.43 18.02 C131.39 13.47, 135.34 8.93, 143.18 -0.09 M132.42 18.38 C137.91 12.06, 143.41 5.74, 148.17 0.27 M132.42 18.38 C136.48 13.71, 140.54 9.04, 148.17 0.27 M138.06 17.99 C142.5 12.89, 146.93 7.79, 153.81 -0.12 M138.06 17.99 C142.57 12.8, 147.08 7.61, 153.81 -0.12 M143.05 18.35 C147.28 13.49, 151.5 8.62, 158.8 0.24 M143.05 18.35 C148.45 12.14, 153.85 5.92, 158.8 0.24 M148.69 17.96 C153.92 11.94, 159.15 5.93, 163.13 1.35 M148.69 17.96 C153.97 11.89, 159.24 5.82, 163.13 1.35 M153.68 18.32 C157.21 14.25, 160.74 10.19, 162.86 7.75 M153.68 18.32 C155.72 15.96, 157.77 13.61, 162.86 7.75 M159.32 17.92 C160.39 16.69, 161.46 15.46, 162.6 14.15 M159.32 17.92 C160.36 16.73, 161.39 15.55, 162.6 14.15" stroke="#fa5252" stroke-width="0.5" fill="none"></path><path d="M0 0 C39.1 0, 78.2 0, 160.96 0 M0 0 C43.17 0, 86.34 0, 160.96 0 M160.96 0 C160.96 7.02, 160.96 14.03, 160.96 17.82 M160.96 0 C160.96 5.35, 160.96 10.7, 160.96 17.82 M160.96 17.82 C127.95 17.82, 94.95 17.82, 0 17.82 M160.96 17.82 C120 17.82, 79.05 17.82, 0 17.82 M0 17.82 C0 11.95, 0 6.08, 0 0 M0 17.82 C0 13.04, 0 8.26, 0 0" stroke="#000000" stroke-width="1" fill="none"></path></g><g stroke-linecap="round" transform="translate(130.1501358530178 488.9999424788957) rotate(0 47.44591346153845 8.260498046875)"><path d="M0 0 C0 0, 0 0, 0 0 M0 0 C0 0, 0 0, 0 0 M-0.26 6.4 C1.65 4.2, 3.57 1.99, 4.99 0.36 M-0.26 6.4 C1.42 4.46, 3.1 2.53, 4.99 0.36 M0.13 12.04 C4.23 7.32, 8.33 2.61, 10.63 -0.03 M0.13 12.04 C2.63 9.17, 5.13 6.3, 10.63 -0.03 M1.18 16.93 C4.7 12.88, 8.23 8.83, 15.62 0.33 M1.18 16.93 C6.02 11.37, 10.85 5.81, 15.62 0.33 M6.17 17.29 C11.11 11.6, 16.06 5.91, 21.26 -0.07 M6.17 17.29 C12.2 10.36, 18.22 3.42, 21.26 -0.07 M11.16 17.65 C14.38 13.94, 17.6 10.24, 26.25 0.29 M11.16 17.65 C16.44 11.57, 21.72 5.49, 26.25 0.29 M16.8 17.25 C20.45 13.06, 24.1 8.86, 31.89 -0.1 M16.8 17.25 C20.38 13.13, 23.96 9.01, 31.89 -0.1 M21.79 17.61 C26.64 12.03, 31.5 6.45, 36.88 0.26 M21.79 17.61 C25.45 13.4, 29.11 9.19, 36.88 0.26 M27.43 17.22 C32.43 11.47, 37.43 5.72, 42.52 -0.14 M27.43 17.22 C31.63 12.39, 35.83 7.56, 42.52 -0.14 M32.42 17.58 C37.2 12.07, 41.99 6.57, 47.51 0.22 M32.42 17.58 C38.29 10.83, 44.15 4.08, 47.51 0.22 M38.06 17.19 C42.51 12.07, 46.96 6.95, 53.15 -0.17 M38.06 17.19 C43.33 11.13, 48.59 5.07, 53.15 -0.17 M43.05 17.55 C46.79 13.24, 50.54 8.93, 58.14 0.19 M43.05 17.55 C47.05 12.94, 51.06 8.33, 58.14 0.19 M48.69 17.15 C53.68 11.41, 58.67 5.68, 63.78 -0.21 M48.69 17.15 C54.36 10.63, 60.03 4.1, 63.78 -0.21 M53.68 17.51 C57.65 12.94, 61.63 8.37, 68.77 0.15 M53.68 17.51 C57.44 13.19, 61.2 8.86, 68.77 0.15 M59.32 17.12 C64.41 11.26, 69.5 5.41, 74.41 -0.24 M59.32 17.12 C65.14 10.43, 70.95 3.74, 74.41 -0.24 M64.31 17.48 C67.49 13.81, 70.68 10.15, 79.4 0.12 M64.31 17.48 C67.57 13.72, 70.84 9.97, 79.4 0.12 M69.95 17.08 C74.67 11.65, 79.4 6.22, 85.04 -0.28 M69.95 17.08 C74.54 11.8, 79.14 6.52, 85.04 -0.28 M74.94 17.44 C78.55 13.28, 82.17 9.13, 90.03 0.08 M74.94 17.44 C80.12 11.48, 85.3 5.52, 90.03 0.08 M80.58 17.05 C85.73 11.13, 90.87 5.21, 95.01 0.44 M80.58 17.05 C85.76 11.09, 90.95 5.13, 95.01 0.44 M85.57 17.41 C89.48 12.91, 93.39 8.41, 95.41 6.09 M85.57 17.41 C88.59 13.93, 91.62 10.45, 95.41 6.09 M91.21 17.01 C92.26 15.81, 93.3 14.61, 95.15 12.49 M91.21 17.01 C92.3 15.76, 93.39 14.51, 95.15 12.49" stroke="#fa5252" stroke-width="0.5" fill="none"></path><path d="M0 0 C33.89 0, 67.78 0, 94.89 0 M0 0 C23.41 0, 46.82 0, 94.89 0 M94.89 0 C94.89 6.33, 94.89 12.67, 94.89 16.52 M94.89 0 C94.89 4.75, 94.89 9.5, 94.89 16.52 M94.89 16.52 C61.32 16.52, 27.75 16.52, 0 16.52 M94.89 16.52 C62.81 16.52, 30.73 16.52, 0 16.52 M0 16.52 C0 12.76, 0 9.01, 0 0 M0 16.52 C0 11.07, 0 5.61, 0 0" stroke="#000000" stroke-width="1" fill="none"></path></g><g stroke-linecap="round" transform="translate(106.11716747861874 519.9166905257707) rotate(0 78.13319279597351 9.415987454927858)"><path d="M0 0 C0 0, 0 0, 0 0 M0 0 C0 0, 0 0, 0 0 M-0.26 6.4 C1.23 4.68, 2.73 2.96, 4.99 0.36 M-0.26 6.4 C1.17 4.75, 2.61 3.1, 4.99 0.36 M0.13 12.04 C3.15 8.57, 6.18 5.09, 10.63 -0.03 M0.13 12.04 C4.05 7.54, 7.96 3.04, 10.63 -0.03 M-0.13 18.44 C3.84 13.88, 7.8 9.31, 15.62 0.33 M-0.13 18.44 C4.44 13.19, 9 7.94, 15.62 0.33 M2.89 21.06 C8.15 15.01, 13.41 8.96, 21.26 -0.07 M2.89 21.06 C6.68 16.71, 10.46 12.35, 21.26 -0.07 M7.88 21.42 C12.82 15.73, 17.77 10.05, 26.25 0.29 M7.88 21.42 C12.18 16.47, 16.49 11.52, 26.25 0.29 M13.52 21.03 C18.06 15.81, 22.6 10.59, 31.89 -0.1 M13.52 21.03 C17.53 16.41, 21.55 11.8, 31.89 -0.1 M18.51 21.39 C22.83 16.41, 27.15 11.44, 36.88 0.26 M18.51 21.39 C24.63 14.34, 30.76 7.29, 36.88 0.26 M24.15 20.99 C28.16 16.38, 32.17 11.77, 42.52 -0.14 M24.15 20.99 C29.41 14.95, 34.66 8.9, 42.52 -0.14 M29.14 21.35 C35.55 13.98, 41.96 6.61, 47.51 0.22 M29.14 21.35 C34.9 14.72, 40.67 8.09, 47.51 0.22 M34.78 20.96 C41.19 13.59, 47.59 6.22, 53.15 -0.17 M34.78 20.96 C41.87 12.81, 48.95 4.66, 53.15 -0.17 M39.77 21.32 C45.43 14.81, 51.09 8.29, 58.14 0.19 M39.77 21.32 C43.48 17.05, 47.19 12.78, 58.14 0.19 M45.41 20.92 C50.68 14.87, 55.94 8.81, 63.78 -0.21 M45.41 20.92 C52.65 12.6, 59.88 4.28, 63.78 -0.21 M50.4 21.29 C56.12 14.7, 61.85 8.11, 68.77 0.15 M50.4 21.29 C56.36 14.43, 62.31 7.58, 68.77 0.15 M56.04 20.89 C63.03 12.85, 70.02 4.81, 74.41 -0.24 M56.04 20.89 C61.32 14.82, 66.59 8.75, 74.41 -0.24 M61.03 21.25 C65.77 15.8, 70.5 10.35, 79.4 0.12 M61.03 21.25 C66.68 14.75, 72.33 8.25, 79.4 0.12 M66.67 20.86 C71.79 14.97, 76.9 9.08, 85.04 -0.28 M66.67 20.86 C72.95 13.63, 79.24 6.4, 85.04 -0.28 M71.66 21.22 C78 13.92, 84.34 6.63, 90.03 0.08 M71.66 21.22 C76.77 15.34, 81.88 9.45, 90.03 0.08 M76.65 21.58 C82.91 14.36, 89.18 7.15, 95.67 -0.31 M76.65 21.58 C83.02 14.24, 89.4 6.9, 95.67 -0.31 M82.29 21.18 C87.28 15.43, 92.28 9.69, 100.66 0.05 M82.29 21.18 C87.12 15.62, 91.95 10.07, 100.66 0.05 M87.28 21.54 C94.54 13.19, 101.8 4.83, 106.3 -0.34 M87.28 21.54 C93.8 14.03, 100.33 6.53, 106.3 -0.34 M92.92 21.15 C97.27 16.14, 101.62 11.14, 111.29 0.02 M92.92 21.15 C100.05 12.94, 107.18 4.74, 111.29 0.02 M97.91 21.51 C104.95 13.4, 112 5.29, 116.27 0.38 M97.91 21.51 C104.19 14.27, 110.48 7.04, 116.27 0.38 M103.55 21.11 C109.76 13.97, 115.96 6.83, 121.92 -0.02 M103.55 21.11 C108.7 15.19, 113.85 9.26, 121.92 -0.02 M108.54 21.47 C115.58 13.37, 122.63 5.26, 126.91 0.34 M108.54 21.47 C112.38 17.05, 116.23 12.62, 126.91 0.34 M114.18 21.08 C121.05 13.18, 127.91 5.28, 132.55 -0.05 M114.18 21.08 C119.07 15.45, 123.97 9.81, 132.55 -0.05 M119.17 21.44 C125.23 14.46, 131.3 7.48, 137.54 0.31 M119.17 21.44 C125.06 14.66, 130.96 7.88, 137.54 0.31 M124.81 21.04 C129.28 15.91, 133.74 10.77, 143.18 -0.09 M124.81 21.04 C131.66 13.17, 138.5 5.29, 143.18 -0.09 M129.8 21.4 C134.79 15.66, 139.78 9.92, 148.17 0.27 M129.8 21.4 C136.29 13.93, 142.78 6.46, 148.17 0.27 M135.44 21.01 C141.76 13.74, 148.08 6.46, 153.81 -0.12 M135.44 21.01 C141.42 14.12, 147.41 7.24, 153.81 -0.12 M140.43 21.37 C146.75 14.1, 153.07 6.83, 158.14 0.99 M140.43 21.37 C145.45 15.59, 150.47 9.81, 158.14 0.99 M146.07 20.97 C150.5 15.88, 154.93 10.78, 157.88 7.39 M146.07 20.97 C150.23 16.19, 154.39 11.4, 157.88 7.39 M151.06 21.33 C152.59 19.57, 154.12 17.81, 157.62 13.79 M151.06 21.33 C153.6 18.41, 156.15 15.48, 157.62 13.79" stroke="#fa5252" stroke-width="0.5" fill="none"></path><path d="M0 0 C43.92 0, 87.83 0, 156.27 0 M0 0 C43.71 0, 87.42 0, 156.27 0 M156.27 0 C156.27 3.94, 156.27 7.87, 156.27 18.83 M156.27 0 C156.27 4.11, 156.27 8.22, 156.27 18.83 M156.27 18.83 C111.95 18.83, 67.63 18.83, 0 18.83 M156.27 18.83 C119.38 18.83, 82.5 18.83, 0 18.83 M0 18.83 C0 11.86, 0 4.89, 0 0 M0 18.83 C0 13.97, 0 9.1, 0 0" stroke="#000000" stroke-width="1" fill="none"></path></g><g stroke-linecap="round" transform="translate(75.60470691671969 555.3243114692802) rotate(0 46.80124136117786 9.489699143629764)"><path d="M0 0 C0 0, 0 0, 0 0 M0 0 C0 0, 0 0, 0 0 M-0.26 6.4 C1.42 4.47, 3.09 2.54, 4.99 0.36 M-0.26 6.4 C0.79 5.18, 1.85 3.97, 4.99 0.36 M0.13 12.04 C3.03 8.71, 5.92 5.38, 10.63 -0.03 M0.13 12.04 C2.46 9.36, 4.79 6.69, 10.63 -0.03 M-0.13 18.44 C3.74 13.99, 7.61 9.54, 15.62 0.33 M-0.13 18.44 C4.27 13.38, 8.67 8.32, 15.62 0.33 M2.89 21.06 C7.39 15.89, 11.88 10.72, 21.26 -0.07 M2.89 21.06 C9.31 13.68, 15.72 6.3, 21.26 -0.07 M7.88 21.42 C12.6 15.99, 17.33 10.55, 26.25 0.29 M7.88 21.42 C14.09 14.28, 20.3 7.14, 26.25 0.29 M13.52 21.03 C17.86 16.04, 22.19 11.06, 31.89 -0.1 M13.52 21.03 C18.72 15.04, 23.92 9.06, 31.89 -0.1 M18.51 21.39 C24.07 14.99, 29.63 8.59, 36.88 0.26 M18.51 21.39 C25 13.91, 31.5 6.44, 36.88 0.26 M24.15 20.99 C30.54 13.64, 36.94 6.29, 42.52 -0.14 M24.15 20.99 C28.74 15.72, 33.33 10.44, 42.52 -0.14 M29.14 21.35 C33.38 16.48, 37.62 11.6, 47.51 0.22 M29.14 21.35 C32.86 17.07, 36.59 12.78, 47.51 0.22 M34.78 20.96 C41.75 12.94, 48.72 4.93, 53.15 -0.17 M34.78 20.96 C41.68 13.02, 48.58 5.08, 53.15 -0.17 M39.77 21.32 C46.93 13.08, 54.09 4.84, 58.14 0.19 M39.77 21.32 C44.58 15.78, 49.4 10.24, 58.14 0.19 M44.75 21.68 C49.1 16.69, 53.44 11.69, 63.78 -0.21 M44.75 21.68 C50.22 15.39, 55.69 9.1, 63.78 -0.21 M50.4 21.29 C54.59 16.46, 58.79 11.64, 68.77 0.15 M50.4 21.29 C54.22 16.89, 58.04 12.49, 68.77 0.15 M55.38 21.65 C60.96 15.23, 66.54 8.81, 74.41 -0.24 M55.38 21.65 C61.31 14.82, 67.24 8, 74.41 -0.24 M61.03 21.25 C66.44 15.03, 71.85 8.8, 79.4 0.12 M61.03 21.25 C65.02 16.66, 69.01 12.07, 79.4 0.12 M66.02 21.61 C71.2 15.64, 76.39 9.67, 85.04 -0.28 M66.02 21.61 C71.24 15.6, 76.47 9.58, 85.04 -0.28 M71.66 21.22 C76.01 16.21, 80.36 11.2, 90.03 0.08 M71.66 21.22 C78.38 13.48, 85.11 5.75, 90.03 0.08 M76.65 21.58 C83.11 14.13, 89.58 6.69, 94.36 1.2 M76.65 21.58 C82.02 15.39, 87.4 9.21, 94.36 1.2 M82.29 21.18 C84.83 18.25, 87.38 15.33, 94.75 6.84 M82.29 21.18 C85.17 17.87, 88.05 14.55, 94.75 6.84 M87.28 21.54 C89.22 19.31, 91.16 17.07, 94.49 13.24 M87.28 21.54 C88.89 19.68, 90.51 17.82, 94.49 13.24" stroke="#fa5252" stroke-width="0.5" fill="none"></path><path d="M0 0 C20.47 0, 40.93 0, 93.6 0 M0 0 C29.02 0, 58.03 0, 93.6 0 M93.6 0 C93.6 4.38, 93.6 8.77, 93.6 18.98 M93.6 0 C93.6 7.2, 93.6 14.4, 93.6 18.98 M93.6 18.98 C64.47 18.98, 35.35 18.98, 0 18.98 M93.6 18.98 C58.17 18.98, 22.74 18.98, 0 18.98 M0 18.98 C0 14.6, 0 10.21, 0 0 M0 18.98 C0 14.68, 0 10.38, 0 0" stroke="#000000" stroke-width="1" fill="none"></path></g><g stroke-linecap="round" transform="translate(48.81820789328219 592.6221442517322) rotate(0 83.04469181941107 11.360896183894283)"><path d="M0 0 C0 0, 0 0, 0 0 M0 0 C0 0, 0 0, 0 0 M-0.26 6.4 C1.43 4.45, 3.13 2.5, 4.99 0.36 M-0.26 6.4 C1.82 4.01, 3.9 1.61, 4.99 0.36 M0.13 12.04 C3.96 7.64, 7.79 3.23, 10.63 -0.03 M0.13 12.04 C2.45 9.37, 4.78 6.7, 10.63 -0.03 M-0.13 18.44 C6.04 11.34, 12.21 4.24, 15.62 0.33 M-0.13 18.44 C4.34 13.3, 8.8 8.16, 15.62 0.33 M0.92 23.33 C7.54 15.71, 14.17 8.09, 21.26 -0.07 M0.92 23.33 C8.1 15.07, 15.27 6.82, 21.26 -0.07 M5.91 23.69 C11.13 17.68, 16.35 11.68, 26.25 0.29 M5.91 23.69 C12.6 15.99, 19.28 8.3, 26.25 0.29 M11.55 23.29 C16.51 17.59, 21.47 11.88, 31.89 -0.1 M11.55 23.29 C16.49 17.61, 21.44 11.92, 31.89 -0.1 M16.54 23.65 C22.96 16.27, 29.38 8.89, 36.88 0.26 M16.54 23.65 C21.79 17.61, 27.04 11.57, 36.88 0.26 M22.18 23.26 C27.64 16.98, 33.09 10.71, 42.52 -0.14 M22.18 23.26 C27.64 16.98, 33.1 10.7, 42.52 -0.14 M27.17 23.62 C32.6 17.37, 38.04 11.11, 47.51 0.22 M27.17 23.62 C33.24 16.63, 39.31 9.65, 47.51 0.22 M32.81 23.22 C37.83 17.45, 42.85 11.67, 53.15 -0.17 M32.81 23.22 C39.02 16.08, 45.23 8.94, 53.15 -0.17 M37.8 23.58 C44.1 16.33, 50.41 9.08, 58.14 0.19 M37.8 23.58 C45.45 14.78, 53.1 5.98, 58.14 0.19 M43.44 23.19 C50.12 15.51, 56.8 7.83, 63.78 -0.21 M43.44 23.19 C50.16 15.46, 56.88 7.73, 63.78 -0.21 M48.43 23.55 C55.39 15.54, 62.35 7.54, 68.77 0.15 M48.43 23.55 C54.89 16.11, 61.36 8.67, 68.77 0.15 M54.07 23.15 C61.41 14.71, 68.76 6.26, 74.41 -0.24 M54.07 23.15 C58.55 18, 63.03 12.85, 74.41 -0.24 M59.06 23.51 C66.43 15.03, 73.8 6.56, 79.4 0.12 M59.06 23.51 C64.15 17.66, 69.23 11.81, 79.4 0.12 M64.7 23.12 C70.67 16.26, 76.63 9.39, 85.04 -0.28 M64.7 23.12 C71.85 14.9, 79 6.67, 85.04 -0.28 M69.69 23.48 C75.16 17.19, 80.63 10.89, 90.03 0.08 M69.69 23.48 C77.81 14.13, 85.94 4.79, 90.03 0.08 M75.33 23.09 C82.94 14.34, 90.54 5.59, 95.67 -0.31 M75.33 23.09 C79.41 18.39, 83.49 13.7, 95.67 -0.31 M80.32 23.45 C85.62 17.35, 90.92 11.25, 100.66 0.05 M80.32 23.45 C86.27 16.6, 92.22 9.76, 100.66 0.05 M85.31 23.81 C92.67 15.33, 100.04 6.86, 106.3 -0.34 M85.31 23.81 C92.53 15.49, 99.76 7.18, 106.3 -0.34 M90.95 23.41 C95.73 17.91, 100.52 12.4, 111.29 0.02 M90.95 23.41 C98.19 15.09, 105.42 6.76, 111.29 0.02 M95.94 23.77 C101.49 17.39, 107.04 11, 116.27 0.38 M95.94 23.77 C101.2 17.72, 106.46 11.66, 116.27 0.38 M101.58 23.38 C109.55 14.21, 117.51 5.05, 121.92 -0.02 M101.58 23.38 C108 15.99, 114.43 8.59, 121.92 -0.02 M106.57 23.74 C112.43 16.99, 118.3 10.24, 126.91 0.34 M106.57 23.74 C113.1 16.23, 119.62 8.72, 126.91 0.34 M112.21 23.34 C116.85 18, 121.5 12.66, 132.55 -0.05 M112.21 23.34 C120.33 14, 128.45 4.66, 132.55 -0.05 M117.2 23.7 C122.19 17.95, 127.19 12.2, 137.54 0.31 M117.2 23.7 C121.41 18.85, 125.63 14, 137.54 0.31 M122.84 23.31 C129.83 15.27, 136.81 7.23, 143.18 -0.09 M122.84 23.31 C129.61 15.52, 136.37 7.74, 143.18 -0.09 M127.83 23.67 C133.79 16.8, 139.76 9.94, 148.17 0.27 M127.83 23.67 C133.81 16.78, 139.8 9.89, 148.17 0.27 M133.47 23.27 C138.26 17.76, 143.06 12.24, 153.81 -0.12 M133.47 23.27 C140.44 15.26, 147.41 7.24, 153.81 -0.12 M138.46 23.63 C144.15 17.09, 149.84 10.54, 158.8 0.24 M138.46 23.63 C143.72 17.58, 148.98 11.53, 158.8 0.24 M144.1 23.24 C150.27 16.14, 156.44 9.04, 164.44 -0.16 M144.1 23.24 C151.33 14.92, 158.56 6.6, 164.44 -0.16 M149.09 23.6 C155.81 15.86, 162.53 8.13, 168.11 1.71 M149.09 23.6 C154.36 17.54, 159.62 11.48, 168.11 1.71 M154.73 23.2 C157.95 19.51, 161.16 15.81, 167.85 8.11 M154.73 23.2 C159.95 17.2, 165.18 11.19, 167.85 8.11 M159.72 23.56 C162.81 20.01, 165.9 16.45, 168.25 13.75 M159.72 23.56 C161.64 21.35, 163.56 19.14, 168.25 13.75 M165.36 23.17 C166.04 22.39, 166.72 21.61, 167.98 20.15 M165.36 23.17 C166.4 21.97, 167.44 20.77, 167.98 20.15" stroke="#fa5252" stroke-width="0.5" fill="none"></path><path d="M0 0 C40.34 0, 80.67 0, 166.09 0 M0 0 C51.76 0, 103.52 0, 166.09 0 M166.09 0 C166.09 6.33, 166.09 12.65, 166.09 22.72 M166.09 0 C166.09 6.56, 166.09 13.11, 166.09 22.72 M166.09 22.72 C129.25 22.72, 92.4 22.72, 0 22.72 M166.09 22.72 C128.37 22.72, 90.65 22.72, 0 22.72 M0 22.72 C0 14.74, 0 6.76, 0 0 M0 22.72 C0 17.27, 0 11.81, 0 0" stroke="#000000" stroke-width="1" fill="none"></path></g><g stroke-linecap="round" transform="translate(40.10971179953219 638.1585963250495) rotate(0 53.0840360201322 10.068875826322142)"><path d="M0 0 C0 0, 0 0, 0 0 M0 0 C0 0, 0 0, 0 0 M-0.26 6.4 C0.88 5.09, 2.02 3.78, 4.99 0.36 M-0.26 6.4 C1.75 4.08, 3.76 1.77, 4.99 0.36 M0.13 12.04 C2.59 9.22, 5.04 6.39, 10.63 -0.03 M0.13 12.04 C2.64 9.15, 5.15 6.27, 10.63 -0.03 M-0.13 18.44 C5 12.54, 10.13 6.64, 15.62 0.33 M-0.13 18.44 C4.82 12.74, 9.77 7.05, 15.62 0.33 M2.23 21.82 C8.33 14.8, 14.43 7.78, 21.26 -0.07 M2.23 21.82 C9.31 13.68, 16.39 5.53, 21.26 -0.07 M7.22 22.18 C11.32 17.47, 15.41 12.76, 26.25 0.29 M7.22 22.18 C13.04 15.49, 18.86 8.79, 26.25 0.29 M12.86 21.78 C20 13.58, 27.13 5.37, 31.89 -0.1 M12.86 21.78 C19.35 14.32, 25.83 6.86, 31.89 -0.1 M17.85 22.14 C24.21 14.83, 30.56 7.52, 36.88 0.26 M17.85 22.14 C22.3 17.03, 26.74 11.91, 36.88 0.26 M23.49 21.75 C31.02 13.09, 38.54 4.44, 42.52 -0.14 M23.49 21.75 C28.67 15.79, 33.85 9.84, 42.52 -0.14 M28.48 22.11 C32.87 17.06, 37.26 12.01, 47.51 0.22 M28.48 22.11 C33.71 16.09, 38.94 10.08, 47.51 0.22 M34.12 21.71 C39.46 15.58, 44.8 9.44, 53.15 -0.17 M34.12 21.71 C41.59 13.13, 49.05 4.54, 53.15 -0.17 M39.11 22.07 C45.84 14.33, 52.57 6.59, 58.14 0.19 M39.11 22.07 C44.93 15.38, 50.75 8.69, 58.14 0.19 M44.75 21.68 C49.1 16.68, 53.45 11.68, 63.78 -0.21 M44.75 21.68 C49.09 16.69, 53.43 11.7, 63.78 -0.21 M49.74 22.04 C54.52 16.54, 59.3 11.04, 68.77 0.15 M49.74 22.04 C55.51 15.41, 61.27 8.78, 68.77 0.15 M55.38 21.65 C61.81 14.25, 68.24 6.86, 74.41 -0.24 M55.38 21.65 C59.3 17.14, 63.22 12.63, 74.41 -0.24 M60.37 22.01 C67.45 13.86, 74.53 5.72, 79.4 0.12 M60.37 22.01 C66.9 14.5, 73.43 6.99, 79.4 0.12 M66.02 21.61 C69.95 17.08, 73.89 12.55, 85.04 -0.28 M66.02 21.61 C70.82 16.09, 75.62 10.56, 85.04 -0.28 M71 21.97 C76.03 16.19, 81.06 10.4, 90.03 0.08 M71 21.97 C74.86 17.53, 78.72 13.1, 90.03 0.08 M75.99 22.33 C82.57 14.76, 89.15 7.19, 95.67 -0.31 M75.99 22.33 C83.75 13.4, 91.51 4.48, 95.67 -0.31 M81.63 21.94 C88.8 13.69, 95.96 5.45, 100.66 0.05 M81.63 21.94 C88.45 14.09, 95.27 6.25, 100.66 0.05 M86.62 22.3 C92.89 15.08, 99.16 7.87, 106.3 -0.34 M86.62 22.3 C93.66 14.19, 100.7 6.09, 106.3 -0.34 M92.26 21.9 C96.65 16.85, 101.04 11.8, 109.32 2.28 M92.26 21.9 C98.86 14.32, 105.45 6.73, 109.32 2.28 M97.25 22.26 C100.3 18.76, 103.34 15.25, 109.06 8.68 M97.25 22.26 C101.62 17.24, 105.98 12.21, 109.06 8.68 M102.89 21.87 C104.99 19.46, 107.08 17.05, 108.8 15.07 M102.89 21.87 C105.04 19.4, 107.19 16.92, 108.8 15.07" stroke="#fa5252" stroke-width="0.5" fill="none"></path><path d="M0 0 C31.35 0, 62.69 0, 106.17 0 M0 0 C30.77 0, 61.54 0, 106.17 0 M106.17 0 C106.17 5.02, 106.17 10.03, 106.17 20.14 M106.17 0 C106.17 5.94, 106.17 11.87, 106.17 20.14 M106.17 20.14 C77.54 20.14, 48.91 20.14, 0 20.14 M106.17 20.14 C77.02 20.14, 47.87 20.14, 0 20.14 M0 20.14 C0 13.27, 0 6.4, 0 0 M0 20.14 C0 13.38, 0 6.62, 0 0" stroke="#000000" stroke-width="1" fill="none"></path></g><g stroke-linecap="round"><g transform="translate(539.5305820669598 359.73672941202256) rotate(0 117.82123272235594 -1.491780921736023)"><path d="M0 0 C91 -1.15, 182.01 -2.3, 235.64 -2.98 M0 0 C66.26 -0.84, 132.51 -1.68, 235.64 -2.98" stroke="#000000" stroke-width="1" fill="none"></path></g><g transform="translate(539.5305820669598 359.73672941202256) rotate(0 117.82123272235594 -1.491780921736023)"><path d="M207.58 7.63 C218.42 3.53, 229.26 -0.57, 235.64 -2.98 M207.58 7.63 C215.47 4.65, 223.36 1.66, 235.64 -2.98" stroke="#000000" stroke-width="1" fill="none"></path></g><g transform="translate(539.5305820669598 359.73672941202256) rotate(0 117.82123272235594 -1.491780921736023)"><path d="M207.32 -12.89 C218.26 -9.06, 229.2 -5.24, 235.64 -2.98 M207.32 -12.89 C215.29 -10.1, 223.25 -7.32, 235.64 -2.98" stroke="#000000" stroke-width="1" fill="none"></path></g></g><g stroke-linecap="round" transform="translate(812.9518373253734 123.46790371687655) rotate(0 351.86025766225964 24.762338491586547)"><path d="M0 0 C277.81 0, 555.63 0, 703.72 0 M0 0 C248.69 0, 497.38 0, 703.72 0 M703.72 0 C703.72 14.64, 703.72 29.28, 703.72 49.52 M703.72 0 C703.72 17.38, 703.72 34.77, 703.72 49.52 M703.72 49.52 C466.59 49.52, 229.45 49.52, 0 49.52 M703.72 49.52 C497.28 49.52, 290.83 49.52, 0 49.52 M0 49.52 C0 33.9, 0 18.27, 0 0 M0 49.52 C0 35.94, 0 22.35, 0 0" stroke="#000000" stroke-width="1" fill="none"></path></g><g stroke-linecap="round" transform="translate(828.5058487436429 136.91850280041024) rotate(0 12.51910869891833 12.243229792668274)"><path d="M25.04 12.24 C25.04 12.95, 24.97 13.67, 24.85 14.37 C24.72 15.07, 24.53 15.76, 24.28 16.43 C24.04 17.1, 23.72 17.75, 23.36 18.36 C23 18.98, 22.58 19.57, 22.11 20.11 C21.64 20.66, 21.12 21.17, 20.57 21.62 C20.01 22.08, 19.41 22.49, 18.78 22.85 C18.15 23.2, 17.48 23.51, 16.8 23.75 C16.12 23.99, 15.41 24.18, 14.69 24.3 C13.98 24.42, 13.24 24.49, 12.52 24.49 C11.79 24.49, 11.06 24.42, 10.35 24.3 C9.63 24.18, 8.92 23.99, 8.24 23.75 C7.56 23.51, 6.89 23.2, 6.26 22.85 C5.63 22.49, 5.03 22.08, 4.47 21.62 C3.92 21.17, 3.39 20.66, 2.93 20.11 C2.46 19.57, 2.04 18.98, 1.68 18.36 C1.31 17.75, 1 17.1, 0.75 16.43 C0.51 15.76, 0.32 15.07, 0.19 14.37 C0.06 13.67, 0 12.95, 0 12.24 C0 11.53, 0.06 10.82, 0.19 10.12 C0.32 9.42, 0.51 8.72, 0.75 8.06 C1 7.39, 1.31 6.74, 1.68 6.12 C2.04 5.51, 2.46 4.92, 2.93 4.37 C3.39 3.83, 3.92 3.32, 4.47 2.86 C5.03 2.41, 5.63 1.99, 6.26 1.64 C6.89 1.29, 7.56 0.98, 8.24 0.74 C8.92 0.5, 9.63 0.31, 10.35 0.19 C11.06 0.06, 11.79 0, 12.52 0 C13.24 0, 13.98 0.06, 14.69 0.19 C15.41 0.31, 16.12 0.5, 16.8 0.74 C17.48 0.98, 18.15 1.29, 18.78 1.64 C19.41 1.99, 20.01 2.41, 20.57 2.86 C21.12 3.32, 21.64 3.83, 22.11 4.37 C22.58 4.92, 23 5.51, 23.36 6.12 C23.72 6.74, 24.04 7.39, 24.28 8.06 C24.53 8.72, 24.72 9.42, 24.85 10.12 C24.97 10.82, 25.01 11.89, 25.04 12.24 C25.07 12.6, 25.07 11.89, 25.04 12.24" stroke="#000000" stroke-width="1" fill="none"></path></g><g stroke-linecap="round" transform="translate(871.5800956637149 136.29134309488137) rotate(0 12.51910869891833 12.243229792668274)"><path d="M25.04 12.24 C25.04 12.95, 24.97 13.67, 24.85 14.37 C24.72 15.07, 24.53 15.76, 24.28 16.43 C24.04 17.1, 23.72 17.75, 23.36 18.36 C23 18.98, 22.58 19.57, 22.11 20.11 C21.64 20.66, 21.12 21.17, 20.57 21.62 C20.01 22.08, 19.41 22.49, 18.78 22.85 C18.15 23.2, 17.48 23.51, 16.8 23.75 C16.12 23.99, 15.41 24.18, 14.69 24.3 C13.98 24.42, 13.24 24.49, 12.52 24.49 C11.79 24.49, 11.06 24.42, 10.35 24.3 C9.63 24.18, 8.92 23.99, 8.24 23.75 C7.56 23.51, 6.89 23.2, 6.26 22.85 C5.63 22.49, 5.03 22.08, 4.47 21.62 C3.92 21.17, 3.39 20.66, 2.93 20.11 C2.46 19.57, 2.04 18.98, 1.68 18.36 C1.31 17.75, 1 17.1, 0.75 16.43 C0.51 15.76, 0.32 15.07, 0.19 14.37 C0.06 13.67, 0 12.95, 0 12.24 C0 11.53, 0.06 10.82, 0.19 10.12 C0.32 9.42, 0.51 8.72, 0.75 8.06 C1 7.39, 1.31 6.74, 1.68 6.12 C2.04 5.51, 2.46 4.92, 2.93 4.37 C3.39 3.83, 3.92 3.32, 4.47 2.86 C5.03 2.41, 5.63 1.99, 6.26 1.64 C6.89 1.29, 7.56 0.98, 8.24 0.74 C8.92 0.5, 9.63 0.31, 10.35 0.19 C11.06 0.06, 11.79 0, 12.52 0 C13.24 0, 13.98 0.06, 14.69 0.19 C15.41 0.31, 16.12 0.5, 16.8 0.74 C17.48 0.98, 18.15 1.29, 18.78 1.64 C19.41 1.99, 20.01 2.41, 20.57 2.86 C21.12 3.32, 21.64 3.83, 22.11 4.37 C22.58 4.92, 23 5.51, 23.36 6.12 C23.72 6.74, 24.04 7.39, 24.28 8.06 C24.53 8.72, 24.72 9.42, 24.85 10.12 C24.97 10.82, 25.01 11.89, 25.04 12.24 C25.07 12.6, 25.07 11.89, 25.04 12.24" stroke="#000000" stroke-width="1" fill="none"></path></g><g stroke-linecap="round" transform="translate(910.4371419377533 136.11542099452078) rotate(0 12.51910869891833 12.243229792668274)"><path d="M25.04 12.24 C25.04 12.95, 24.97 13.67, 24.85 14.37 C24.72 15.07, 24.53 15.76, 24.28 16.43 C24.04 17.1, 23.72 17.75, 23.36 18.36 C23 18.98, 22.58 19.57, 22.11 20.11 C21.64 20.66, 21.12 21.17, 20.57 21.62 C20.01 22.08, 19.41 22.49, 18.78 22.85 C18.15 23.2, 17.48 23.51, 16.8 23.75 C16.12 23.99, 15.41 24.18, 14.69 24.3 C13.98 24.42, 13.24 24.49, 12.52 24.49 C11.79 24.49, 11.06 24.42, 10.35 24.3 C9.63 24.18, 8.92 23.99, 8.24 23.75 C7.56 23.51, 6.89 23.2, 6.26 22.85 C5.63 22.49, 5.03 22.08, 4.47 21.62 C3.92 21.17, 3.39 20.66, 2.93 20.11 C2.46 19.57, 2.04 18.98, 1.68 18.36 C1.31 17.75, 1 17.1, 0.75 16.43 C0.51 15.76, 0.32 15.07, 0.19 14.37 C0.06 13.67, 0 12.95, 0 12.24 C0 11.53, 0.06 10.82, 0.19 10.12 C0.32 9.42, 0.51 8.72, 0.75 8.06 C1 7.39, 1.31 6.74, 1.68 6.12 C2.04 5.51, 2.46 4.92, 2.93 4.37 C3.39 3.83, 3.92 3.32, 4.47 2.86 C5.03 2.41, 5.63 1.99, 6.26 1.64 C6.89 1.29, 7.56 0.98, 8.24 0.74 C8.92 0.5, 9.63 0.31, 10.35 0.19 C11.06 0.06, 11.79 0, 12.52 0 C13.24 0, 13.98 0.06, 14.69 0.19 C15.41 0.31, 16.12 0.5, 16.8 0.74 C17.48 0.98, 18.15 1.29, 18.78 1.64 C19.41 1.99, 20.01 2.41, 20.57 2.86 C21.12 3.32, 21.64 3.83, 22.11 4.37 C22.58 4.92, 23 5.51, 23.36 6.12 C23.72 6.74, 24.04 7.39, 24.28 8.06 C24.53 8.72, 24.72 9.42, 24.85 10.12 C24.97 10.82, 25.01 11.89, 25.04 12.24 C25.07 12.6, 25.07 11.89, 25.04 12.24" stroke="#000000" stroke-width="1" fill="none"></path></g><g stroke-linecap="round" transform="translate(813.246871880662 182.1545210546169) rotate(0 349.81698843149036 23.426560621995236)"><path d="M0 0 C275.55 0, 551.11 0, 699.63 0 M0 0 C210.17 0, 420.34 0, 699.63 0 M699.63 0 C699.63 9.61, 699.63 19.21, 699.63 46.85 M699.63 0 C699.63 11.92, 699.63 23.84, 699.63 46.85 M699.63 46.85 C469.13 46.85, 238.63 46.85, 0 46.85 M699.63 46.85 C512.1 46.85, 324.56 46.85, 0 46.85 M0 46.85 C0 28.64, 0 10.43, 0 0 M0 46.85 C0 37.01, 0 27.16, 0 0" stroke="#000000" stroke-width="1" fill="none"></path></g><g stroke-linecap="round" transform="translate(826.4298083289793 194.99866543562655) rotate(0 13.696476862980717 11.303570087139406)"><path d="M0 0 C10.5 0, 21.01 0, 27.39 0 M0 0 C7.87 0, 15.75 0, 27.39 0 M27.39 0 C27.39 8, 27.39 16, 27.39 22.61 M27.39 0 C27.39 7.64, 27.39 15.29, 27.39 22.61 M27.39 22.61 C21.17 22.61, 14.94 22.61, 0 22.61 M27.39 22.61 C18.35 22.61, 9.3 22.61, 0 22.61 M0 22.61 C0 15.1, 0 7.59, 0 0 M0 22.61 C0 15.23, 0 7.85, 0 0" stroke="#000000" stroke-width="1" fill="none"></path></g><g stroke-linecap="round" transform="translate(865.8856564359503 193.54001910149202) rotate(0 265.4802058293269 12.617469200721132)"><path d="M0 0 C110.99 0, 221.97 0, 530.96 0 M0 0 C115.87 0, 231.74 0, 530.96 0 M530.96 0 C530.96 7.16, 530.96 14.31, 530.96 25.23 M530.96 0 C530.96 5.96, 530.96 11.91, 530.96 25.23 M530.96 25.23 C334.38 25.23, 137.79 25.23, 0 25.23 M530.96 25.23 C393.81 25.23, 256.65 25.23, 0 25.23 M0 25.23 C0 17.59, 0 9.94, 0 0 M0 25.23 C0 16.62, 0 8, 0 0" stroke="#000000" stroke-width="1" fill="none"></path></g><g stroke-linecap="round" transform="translate(1464.6016645489312 188.0657289873095) rotate(0 16.493671123798094 16.493671123798094)"><path d="M32.99 16.49 C32.99 17.45, 32.9 18.42, 32.74 19.36 C32.57 20.3, 32.32 21.24, 31.99 22.13 C31.67 23.03, 31.25 23.91, 30.78 24.74 C30.3 25.57, 29.74 26.36, 29.13 27.1 C28.51 27.83, 27.83 28.51, 27.1 29.13 C26.36 29.74, 25.57 30.3, 24.74 30.78 C23.91 31.25, 23.03 31.67, 22.13 31.99 C21.24 32.32, 20.3 32.57, 19.36 32.74 C18.42 32.9, 17.45 32.99, 16.49 32.99 C15.54 32.99, 14.57 32.9, 13.63 32.74 C12.69 32.57, 11.75 32.32, 10.85 31.99 C9.96 31.67, 9.07 31.25, 8.25 30.78 C7.42 30.3, 6.62 29.74, 5.89 29.13 C5.16 28.51, 4.47 27.83, 3.86 27.1 C3.25 26.36, 2.69 25.57, 2.21 24.74 C1.73 23.91, 1.32 23.03, 0.99 22.13 C0.67 21.24, 0.42 20.3, 0.25 19.36 C0.08 18.42, 0 17.45, 0 16.49 C0 15.54, 0.08 14.57, 0.25 13.63 C0.42 12.69, 0.67 11.75, 0.99 10.85 C1.32 9.96, 1.73 9.07, 2.21 8.25 C2.69 7.42, 3.25 6.62, 3.86 5.89 C4.47 5.16, 5.16 4.47, 5.89 3.86 C6.62 3.25, 7.42 2.69, 8.25 2.21 C9.07 1.73, 9.96 1.32, 10.85 0.99 C11.75 0.67, 12.69 0.42, 13.63 0.25 C14.57 0.08, 15.54 0, 16.49 0 C17.45 0, 18.42 0.08, 19.36 0.25 C20.3 0.42, 21.24 0.67, 22.13 0.99 C23.03 1.32, 23.91 1.73, 24.74 2.21 C25.57 2.69, 26.36 3.25, 27.1 3.86 C27.83 4.47, 28.51 5.16, 29.13 5.89 C29.74 6.62, 30.3 7.42, 30.78 8.25 C31.25 9.07, 31.67 9.96, 31.99 10.85 C32.32 11.75, 32.57 12.69, 32.74 13.63 C32.9 14.57, 32.95 16.02, 32.99 16.49 C33.03 16.97, 33.03 16.02, 32.99 16.49" stroke="#000000" stroke-width="1" fill="none"></path></g><g stroke-linecap="round" transform="translate(816.9127372652774 240.11998454620345) rotate(0 102.07876352163453 191.61114032451917)"><path d="M0 0 C56.83 0, 113.67 0, 204.16 0 M0 0 C58.9 0, 117.81 0, 204.16 0 M204.16 0 C204.16 85.01, 204.16 170.02, 204.16 383.22 M204.16 0 C204.16 87.04, 204.16 174.07, 204.16 383.22 M204.16 383.22 C132.47 383.22, 60.78 383.22, 0 383.22 M204.16 383.22 C155.14 383.22, 106.12 383.22, 0 383.22 M0 383.22 C0 263.28, 0 143.33, 0 0 M0 383.22 C0 240.88, 0 98.54, 0 0" stroke="#000000" stroke-width="1" fill="none"></path></g><g stroke-linecap="round" transform="translate(1033.7233217003734 242.9062863791362) rotate(0 237.59559044471155 189.91473858173077)"><path d="M0 0 C118.37 0, 236.73 0, 475.19 0 M0 0 C140.09 0, 280.18 0, 475.19 0 M475.19 0 C475.19 102.42, 475.19 204.84, 475.19 379.83 M475.19 0 C475.19 104.28, 475.19 208.57, 475.19 379.83 M475.19 379.83 C313.1 379.83, 151.01 379.83, 0 379.83 M475.19 379.83 C315.75 379.83, 156.3 379.83, 0 379.83 M0 379.83 C0 297.64, 0 215.45, 0 0 M0 379.83 C0 260.01, 0 140.2, 0 0" stroke="#000000" stroke-width="1" fill="none"></path></g><g stroke-linecap="round" transform="translate(825.7850892784984 251.83873454620345) rotate(0 81.13802396334142 6.310096153846189)"><path d="M0 0 C50.26 0, 100.52 0, 162.28 0 M0 0 C61.42 0, 122.83 0, 162.28 0 M162.28 0 C162.28 4.76, 162.28 9.53, 162.28 12.62 M162.28 0 C162.28 3.09, 162.28 6.18, 162.28 12.62 M162.28 12.62 C116.84 12.62, 71.41 12.62, 0 12.62 M162.28 12.62 C100.51 12.62, 38.75 12.62, 0 12.62 M0 12.62 C0 9.13, 0 5.65, 0 0 M0 12.62 C0 9.88, 0 7.14, 0 0" stroke="#000000" stroke-width="1" fill="none"></path></g><g stroke-linecap="round" transform="translate(852.4842141282581 271.36998454620345) rotate(0 59.92403470552881 6.372915414663453)"><path d="M0 0 C35.43 0, 70.85 0, 119.85 0 M0 0 C42.07 0, 84.14 0, 119.85 0 M119.85 0 C119.85 4.3, 119.85 8.59, 119.85 12.75 M119.85 0 C119.85 3.74, 119.85 7.48, 119.85 12.75 M119.85 12.75 C82.03 12.75, 44.21 12.75, 0 12.75 M119.85 12.75 C86.97 12.75, 54.09 12.75, 0 12.75 M0 12.75 C0 7.69, 0 2.63, 0 0 M0 12.75 C0 8.68, 0 4.61, 0 0" stroke="#000000" stroke-width="1" fill="none"></path></g><g stroke-linecap="round" transform="translate(855.7020814659984 294.76382093442464) rotate(0 56.76903357872607 6.616023137019226)"><path d="M0 0 C35.29 0, 70.59 0, 113.54 0 M0 0 C28.98 0, 57.96 0, 113.54 0 M113.54 0 C113.54 2.76, 113.54 5.52, 113.54 13.23 M113.54 0 C113.54 2.73, 113.54 5.47, 113.54 13.23 M113.54 13.23 C83.5 13.23, 53.47 13.23, 0 13.23 M113.54 13.23 C74.14 13.23, 34.74 13.23, 0 13.23 M0 13.23 C0 8.59, 0 3.95, 0 0 M0 13.23 C0 9.32, 0 5.41, 0 0" stroke="#000000" stroke-width="1" fill="none"></path></g><g transform="translate(1041.1041622953255 64.40079321507369) rotate(0 112 22.5)"><text x="0" y="32" font-family="Virgil, Segoe UI Emoji" font-size="36px" fill="#000000" text-anchor="start" style="white-space: pre;" direction="ltr">NETTLESER</text></g><g stroke-linecap="round" transform="translate(1048.474098724862 256.7447873556988) rotate(0 220.87792029747595 34.88854041466345)"><path d="M0 0 C0 0, 0 0, 0 0 M0 0 C0 0, 0 0, 0 0 M-0.26 6.4 C1.12 4.81, 2.5 3.22, 4.99 0.36 M-0.26 6.4 C1.65 4.2, 3.56 2, 4.99 0.36 M0.13 12.04 C2.88 8.88, 5.63 5.72, 10.63 -0.03 M0.13 12.04 C2.81 8.96, 5.49 5.88, 10.63 -0.03 M-0.13 18.44 C5.01 12.53, 10.15 6.62, 15.62 0.33 M-0.13 18.44 C4.99 12.56, 10.1 6.67, 15.62 0.33 M0.27 24.08 C8.34 14.8, 16.41 5.51, 21.26 -0.07 M0.27 24.08 C5.23 18.38, 10.18 12.67, 21.26 -0.07 M0 30.48 C8.75 20.42, 17.49 10.37, 26.25 0.29 M0 30.48 C10.06 18.91, 20.11 7.35, 26.25 0.29 M-0.26 36.88 C7.38 28.09, 15.01 19.31, 31.89 -0.1 M-0.26 36.88 C9.09 26.13, 18.44 15.37, 31.89 -0.1 M0.14 42.52 C12.33 28.49, 24.52 14.47, 36.88 0.26 M0.14 42.52 C8.06 33.41, 15.98 24.3, 36.88 0.26 M-0.12 48.92 C9.22 38.17, 18.56 27.42, 42.52 -0.14 M-0.12 48.92 C14.6 31.98, 29.32 15.05, 42.52 -0.14 M0.27 54.56 C13.07 39.84, 25.87 25.12, 47.51 0.22 M0.27 54.56 C19.1 32.9, 37.94 11.23, 47.51 0.22 M0.01 60.96 C12.11 47.04, 24.22 33.11, 53.15 -0.17 M0.01 60.96 C12.03 47.13, 24.05 33.31, 53.15 -0.17 M-0.25 67.36 C23.03 40.57, 46.31 13.79, 58.14 0.19 M-0.25 67.36 C11.96 53.31, 24.17 39.27, 58.14 0.19 M1.45 71.49 C17.77 52.72, 34.09 33.94, 63.78 -0.21 M1.45 71.49 C17.67 52.84, 33.89 34.18, 63.78 -0.21 M7.1 71.1 C23.36 52.39, 39.63 33.68, 68.77 0.15 M7.1 71.1 C20.87 55.25, 34.64 39.41, 68.77 0.15 M12.09 71.46 C25.79 55.69, 39.49 39.93, 74.41 -0.24 M12.09 71.46 C29.15 51.83, 46.21 32.2, 74.41 -0.24 M17.73 71.06 C37.11 48.76, 56.5 26.46, 79.4 0.12 M17.73 71.06 C37.34 48.5, 56.95 25.95, 79.4 0.12 M22.72 71.42 C41.42 49.9, 60.13 28.38, 85.04 -0.28 M22.72 71.42 C47.25 43.2, 71.78 14.98, 85.04 -0.28 M28.36 71.03 C46.8 49.82, 65.24 28.6, 90.03 0.08 M28.36 71.03 C44.98 51.9, 61.61 32.78, 90.03 0.08 M33.35 71.39 C45.89 56.96, 58.43 42.53, 95.67 -0.31 M33.35 71.39 C48.68 53.74, 64.02 36.09, 95.67 -0.31 M38.99 70.99 C55.4 52.11, 71.82 33.23, 100.66 0.05 M38.99 70.99 C60.86 45.83, 82.73 20.67, 100.66 0.05 M43.98 71.35 C64.02 48.3, 84.06 25.24, 106.3 -0.34 M43.98 71.35 C66.29 45.69, 88.6 20.02, 106.3 -0.34 M49.62 70.96 C72.08 45.12, 94.54 19.28, 111.29 0.02 M49.62 70.96 C71.2 46.14, 92.77 21.31, 111.29 0.02 M54.61 71.32 C76.78 45.81, 98.95 20.3, 116.27 0.38 M54.61 71.32 C76.54 46.09, 98.47 20.85, 116.27 0.38 M60.25 70.92 C75.15 53.78, 90.06 36.63, 121.92 -0.02 M60.25 70.92 C80.71 47.39, 101.16 23.86, 121.92 -0.02 M65.24 71.28 C84.58 49.03, 103.92 26.78, 126.91 0.34 M65.24 71.28 C87.79 45.33, 110.35 19.38, 126.91 0.34 M70.88 70.89 C86.11 53.37, 101.34 35.85, 132.55 -0.05 M70.88 70.89 C87.95 51.25, 105.02 31.62, 132.55 -0.05 M75.87 71.25 C93.27 51.23, 110.67 31.21, 137.54 0.31 M75.87 71.25 C89.12 56, 102.37 40.76, 137.54 0.31 M80.85 71.61 C95.09 55.23, 109.34 38.84, 143.18 -0.09 M80.85 71.61 C97.16 52.85, 113.46 34.1, 143.18 -0.09 M86.5 71.21 C102.76 52.5, 119.03 33.79, 148.17 0.27 M86.5 71.21 C100.65 54.93, 114.81 38.64, 148.17 0.27 M91.48 71.57 C112.34 47.58, 133.2 23.58, 153.81 -0.12 M91.48 71.57 C107.86 52.73, 124.24 33.9, 153.81 -0.12 M97.13 71.18 C119.12 45.87, 141.12 20.57, 158.8 0.24 M97.13 71.18 C111.7 54.41, 126.28 37.64, 158.8 0.24 M102.11 71.54 C115.45 56.2, 128.79 40.85, 164.44 -0.16 M102.11 71.54 C124.35 45.96, 146.59 20.37, 164.44 -0.16 M107.76 71.15 C129.93 45.64, 152.1 20.14, 169.43 0.2 M107.76 71.15 C130.07 45.48, 152.38 19.81, 169.43 0.2 M112.74 71.51 C126.14 56.1, 139.53 40.69, 175.07 -0.19 M112.74 71.51 C132.71 48.54, 152.67 25.57, 175.07 -0.19 M118.39 71.11 C141.24 44.82, 164.09 18.53, 180.06 0.17 M118.39 71.11 C132.73 54.61, 147.07 38.12, 180.06 0.17 M123.37 71.47 C147.42 43.81, 171.46 16.16, 185.7 -0.23 M123.37 71.47 C137.7 54.99, 152.03 38.51, 185.7 -0.23 M129.02 71.08 C152.97 43.53, 176.92 15.97, 190.69 0.13 M129.02 71.08 C152.14 44.47, 175.27 17.87, 190.69 0.13 M134 71.44 C151.15 51.72, 168.29 31.99, 196.33 -0.26 M134 71.44 C150.33 52.65, 166.66 33.87, 196.33 -0.26 M139.65 71.04 C158.84 48.96, 178.04 26.87, 201.32 0.1 M139.65 71.04 C152.96 55.73, 166.27 40.41, 201.32 0.1 M144.63 71.4 C165.28 47.65, 185.92 23.9, 206.96 -0.3 M144.63 71.4 C162.91 50.38, 181.19 29.35, 206.96 -0.3 M150.28 71.01 C171.11 47.04, 191.94 23.08, 211.95 0.06 M150.28 71.01 C167.65 51.02, 185.02 31.04, 211.95 0.06 M155.26 71.37 C174.13 49.66, 193 27.96, 217.59 -0.33 M155.26 71.37 C173.97 49.84, 192.68 28.32, 217.59 -0.33 M160.91 70.97 C183.5 44.98, 206.09 18.99, 222.58 0.03 M160.91 70.97 C185.51 42.67, 210.11 14.36, 222.58 0.03 M165.89 71.33 C180.72 54.27, 195.55 37.21, 228.22 -0.36 M165.89 71.33 C188.3 45.56, 210.7 19.79, 228.22 -0.36 M171.54 70.94 C195.92 42.89, 220.3 14.84, 233.21 0 M171.54 70.94 C189.69 50.06, 207.84 29.18, 233.21 0 M176.52 71.3 C194.12 51.05, 211.72 30.81, 238.19 0.36 M176.52 71.3 C191.79 53.74, 207.05 36.18, 238.19 0.36 M182.17 70.9 C202.1 47.97, 222.04 25.03, 243.84 -0.04 M182.17 70.9 C206.48 42.93, 230.79 14.97, 243.84 -0.04 M187.15 71.26 C205.25 50.45, 223.34 29.64, 248.82 0.32 M187.15 71.26 C202.01 54.17, 216.88 37.07, 248.82 0.32 M192.8 70.87 C214.29 46.14, 235.79 21.42, 254.47 -0.07 M192.8 70.87 C206.7 54.88, 220.59 38.89, 254.47 -0.07 M197.78 71.23 C210.76 56.3, 223.74 41.37, 259.45 0.29 M197.78 71.23 C217.3 48.78, 236.81 26.34, 259.45 0.29 M202.77 71.59 C225.8 45.09, 248.84 18.59, 265.1 -0.11 M202.77 71.59 C216.12 56.23, 229.48 40.87, 265.1 -0.11 M208.41 71.2 C225.99 50.97, 243.57 30.75, 270.08 0.25 M208.41 71.2 C230.02 46.34, 251.63 21.49, 270.08 0.25 M213.4 71.56 C237.38 43.96, 261.37 16.37, 275.73 -0.14 M213.4 71.56 C231.31 50.95, 249.23 30.34, 275.73 -0.14 M219.04 71.16 C235.42 52.32, 251.8 33.48, 280.71 0.22 M219.04 71.16 C238.74 48.5, 258.44 25.85, 280.71 0.22 M224.03 71.52 C242.27 50.53, 260.52 29.55, 286.36 -0.18 M224.03 71.52 C240.95 52.06, 257.87 32.6, 286.36 -0.18 M229.67 71.13 C242.04 56.91, 254.4 42.69, 291.34 0.18 M229.67 71.13 C248.18 49.84, 266.68 28.55, 291.34 0.18 M234.66 71.49 C252.84 50.57, 271.02 29.66, 296.99 -0.21 M234.66 71.49 C252.92 50.49, 271.17 29.49, 296.99 -0.21 M240.3 71.09 C254.99 54.2, 269.68 37.3, 301.97 0.15 M240.3 71.09 C256.89 52.01, 273.47 32.93, 301.97 0.15 M245.29 71.45 C262.75 51.36, 280.22 31.27, 307.62 -0.25 M245.29 71.45 C268.87 44.33, 292.45 17.2, 307.62 -0.25 M250.93 71.06 C264.94 54.95, 278.94 38.84, 312.6 0.11 M250.93 71.06 C269.59 49.59, 288.25 28.13, 312.6 0.11 M255.92 71.42 C271.92 53.01, 287.92 34.61, 318.25 -0.28 M255.92 71.42 C271.77 53.18, 287.63 34.95, 318.25 -0.28 M261.56 71.02 C281.03 48.63, 300.5 26.23, 323.23 0.08 M261.56 71.02 C284.85 44.24, 308.13 17.45, 323.23 0.08 M266.55 71.38 C286.47 48.47, 306.38 25.56, 328.88 -0.31 M266.55 71.38 C288.21 46.47, 309.86 21.56, 328.88 -0.31 M272.19 70.99 C293.93 45.99, 315.66 20.98, 333.86 0.05 M272.19 70.99 C295.04 44.71, 317.88 18.43, 333.86 0.05 M277.18 71.35 C293.84 52.19, 310.5 33.02, 339.51 -0.35 M277.18 71.35 C301.13 43.8, 325.08 16.25, 339.51 -0.35 M282.82 70.95 C300.45 50.68, 318.07 30.41, 344.49 0.01 M282.82 70.95 C298.72 52.67, 314.62 34.38, 344.49 0.01 M287.81 71.31 C312.37 43.06, 336.93 14.81, 349.48 0.37 M287.81 71.31 C311.94 43.56, 336.07 15.8, 349.48 0.37 M293.45 70.92 C315.9 45.09, 338.35 19.27, 355.12 -0.02 M293.45 70.92 C312.95 48.49, 332.45 26.06, 355.12 -0.02 M298.44 71.28 C317.62 49.22, 336.8 27.16, 360.11 0.34 M298.44 71.28 C316.64 50.34, 334.84 29.41, 360.11 0.34 M304.08 70.88 C324.79 47.07, 345.5 23.25, 365.75 -0.06 M304.08 70.88 C323.95 48.03, 343.81 25.19, 365.75 -0.06 M309.07 71.24 C327.81 49.69, 346.54 28.14, 370.74 0.3 M309.07 71.24 C328.95 48.38, 348.82 25.52, 370.74 0.3 M314.06 71.6 C329.6 53.73, 345.14 35.85, 376.38 -0.09 M314.06 71.6 C336.01 46.35, 357.96 21.1, 376.38 -0.09 M319.7 71.21 C342.84 44.59, 365.99 17.97, 381.37 0.27 M319.7 71.21 C344.33 42.87, 368.97 14.54, 381.37 0.27 M324.69 71.57 C340.47 53.41, 356.26 35.26, 387.01 -0.13 M324.69 71.57 C348.56 44.11, 372.43 16.65, 387.01 -0.13 M330.33 71.18 C344.13 55.3, 357.93 39.43, 392 0.23 M330.33 71.18 C352.1 46.13, 373.87 21.09, 392 0.23 M335.32 71.54 C359.99 43.15, 384.67 14.77, 397.64 -0.16 M335.32 71.54 C353.46 50.67, 371.6 29.8, 397.64 -0.16 M340.96 71.14 C356.24 53.57, 371.51 36, 402.63 0.2 M340.96 71.14 C360.06 49.17, 379.16 27.2, 402.63 0.2 M345.95 71.5 C360.02 55.32, 374.09 39.13, 408.27 -0.2 M345.95 71.5 C361.71 53.37, 377.48 35.23, 408.27 -0.2 M351.59 71.11 C372.9 46.6, 394.21 22.08, 413.26 0.16 M351.59 71.11 C369.84 50.11, 388.1 29.11, 413.26 0.16 M356.58 71.47 C380.96 43.42, 405.34 15.37, 418.9 -0.23 M356.58 71.47 C378.1 46.71, 399.61 21.96, 418.9 -0.23 M362.22 71.07 C381.69 48.68, 401.16 26.28, 423.89 0.13 M362.22 71.07 C376.93 54.16, 391.63 37.24, 423.89 0.13 M367.21 71.43 C382.21 54.18, 397.21 36.92, 429.53 -0.26 M367.21 71.43 C388.68 46.73, 410.15 22.04, 429.53 -0.26 M372.85 71.04 C388.68 52.83, 404.5 34.63, 434.52 0.1 M372.85 71.04 C395.28 45.24, 417.7 19.45, 434.52 0.1 M377.84 71.4 C391.72 55.43, 405.6 39.47, 440.16 -0.3 M377.84 71.4 C398.24 47.93, 418.63 24.47, 440.16 -0.3 M383.48 71 C405.62 45.54, 427.76 20.07, 443.84 1.57 M383.48 71 C407.51 43.36, 431.54 15.72, 443.84 1.57 M388.47 71.36 C404.21 53.26, 419.95 35.15, 443.58 7.97 M388.47 71.36 C403.35 54.24, 418.24 37.12, 443.58 7.97 M394.11 70.97 C411.29 51.2, 428.48 31.44, 443.97 13.61 M394.11 70.97 C412.48 49.83, 430.86 28.7, 443.97 13.61 M399.1 71.33 C411.5 57.07, 423.9 42.8, 443.71 20.01 M399.1 71.33 C410.24 58.52, 421.37 45.71, 443.71 20.01 M404.74 70.93 C419.78 53.63, 434.82 36.33, 443.45 26.41 M404.74 70.93 C412.53 61.97, 420.32 53.01, 443.45 26.41 M409.73 71.29 C421.6 57.64, 433.48 43.98, 443.84 32.05 M409.73 71.29 C418 61.78, 426.26 52.27, 443.84 32.05 M415.37 70.9 C426.57 58.02, 437.77 45.14, 443.58 38.45 M415.37 70.9 C424.49 60.42, 433.6 49.93, 443.58 38.45 M420.36 71.26 C428.49 61.9, 436.63 52.55, 443.98 44.09 M420.36 71.26 C428.03 62.44, 435.7 53.61, 443.98 44.09 M426 70.87 C432.53 63.36, 439.05 55.85, 443.72 50.49 M426 70.87 C430.61 65.56, 435.23 60.25, 443.72 50.49 M430.99 71.23 C433.68 68.14, 436.36 65.05, 443.45 56.89 M430.99 71.23 C434.4 67.3, 437.81 63.38, 443.45 56.89 M435.98 71.59 C437.56 69.76, 439.14 67.94, 443.85 62.53 M435.98 71.59 C437.86 69.41, 439.75 67.24, 443.85 62.53" stroke="#fa5252" stroke-width="0.5" fill="none"></path><path d="M0 0 C172.11 0, 344.22 0, 441.76 0 M0 0 C170.55 0, 341.1 0, 441.76 0 M441.76 0 C441.76 19.01, 441.76 38.02, 441.76 69.78 M441.76 0 C441.76 22.97, 441.76 45.94, 441.76 69.78 M441.76 69.78 C303.65 69.78, 165.54 69.78, 0 69.78 M441.76 69.78 C306.35 69.78, 170.94 69.78, 0 69.78 M0 69.78 C0 42.26, 0 14.74, 0 0 M0 69.78 C0 47.14, 0 24.5, 0 0" stroke="#000000" stroke-width="1" fill="none"></path></g><g stroke-linecap="round" transform="translate(1079.019283520535 343.2395852823814) rotate(0 154.42800668569703 132.0012019230769)"><path d="M0 0 C0 0, 0 0, 0 0 M0 0 C0 0, 0 0, 0 0 M-0.26 6.4 C1.44 4.44, 3.14 2.49, 4.99 0.36 M-0.26 6.4 C1.13 4.79, 2.53 3.19, 4.99 0.36 M0.13 12.04 C3.43 8.24, 6.74 4.44, 10.63 -0.03 M0.13 12.04 C2.61 9.19, 5.09 6.34, 10.63 -0.03 M-0.13 18.44 C4.28 13.37, 8.68 8.31, 15.62 0.33 M-0.13 18.44 C3.79 13.93, 7.7 9.43, 15.62 0.33 M0.27 24.08 C5.59 17.96, 10.91 11.84, 21.26 -0.07 M0.27 24.08 C7.82 15.4, 15.37 6.71, 21.26 -0.07 M0 30.48 C6.28 23.26, 12.55 16.05, 26.25 0.29 M0 30.48 C9.36 19.71, 18.72 8.95, 26.25 0.29 M-0.26 36.88 C6.42 29.19, 13.1 21.51, 31.89 -0.1 M-0.26 36.88 C11.28 23.61, 22.81 10.34, 31.89 -0.1 M0.14 42.52 C11.17 29.83, 22.21 17.13, 36.88 0.26 M0.14 42.52 C8.08 33.39, 16.02 24.25, 36.88 0.26 M-0.12 48.92 C9.51 37.84, 19.14 26.76, 42.52 -0.14 M-0.12 48.92 C13.1 33.7, 26.33 18.48, 42.52 -0.14 M0.27 54.56 C12.66 40.31, 25.04 26.07, 47.51 0.22 M0.27 54.56 C16.98 35.34, 33.68 16.13, 47.51 0.22 M0.01 60.96 C13.62 45.3, 27.23 29.65, 53.15 -0.17 M0.01 60.96 C20.76 37.09, 41.51 13.22, 53.15 -0.17 M-0.25 67.36 C12.76 52.38, 25.78 37.41, 58.14 0.19 M-0.25 67.36 C22.86 40.77, 45.97 14.19, 58.14 0.19 M0.14 73 C22.22 47.6, 44.3 22.21, 63.78 -0.21 M0.14 73 C17.71 52.79, 35.28 32.57, 63.78 -0.21 M-0.12 79.4 C26.13 49.21, 52.37 19.01, 68.77 0.15 M-0.12 79.4 C18.42 58.07, 36.96 36.75, 68.77 0.15 M0.28 85.04 C18.57 63.99, 36.87 42.94, 74.41 -0.24 M0.28 85.04 C25.76 55.73, 51.24 26.41, 74.41 -0.24 M0.01 91.44 C18.66 69.99, 37.3 48.55, 79.4 0.12 M0.01 91.44 C15.9 73.16, 31.79 54.88, 79.4 0.12 M-0.25 97.84 C17.17 77.8, 34.59 57.76, 85.04 -0.28 M-0.25 97.84 C22.77 71.36, 45.78 44.88, 85.04 -0.28 M0.15 103.48 C34.56 63.89, 68.98 24.3, 90.03 0.08 M0.15 103.48 C28.51 70.86, 56.86 38.24, 90.03 0.08 M-0.11 109.88 C35.09 69.38, 70.3 28.88, 95.67 -0.31 M-0.11 109.88 C22.02 84.42, 44.15 58.96, 95.67 -0.31 M0.28 115.52 C32.76 78.15, 65.24 40.79, 100.66 0.05 M0.28 115.52 C24.54 87.61, 48.81 59.7, 100.66 0.05 M0.02 121.92 C40.96 74.82, 81.91 27.72, 106.3 -0.34 M0.02 121.92 C32.32 84.76, 64.62 47.6, 106.3 -0.34 M-0.24 128.32 C28.24 95.55, 56.73 62.78, 111.29 0.02 M-0.24 128.32 C33.82 89.14, 67.87 49.96, 111.29 0.02 M0.15 133.96 C24.04 106.48, 47.94 78.99, 116.27 0.38 M0.15 133.96 C30.92 98.56, 61.7 63.16, 116.27 0.38 M-0.11 140.36 C33.66 101.51, 67.42 62.67, 121.92 -0.02 M-0.11 140.36 C40.53 93.61, 81.16 46.86, 121.92 -0.02 M0.29 146 C35.42 105.58, 70.56 65.16, 126.91 0.34 M0.29 146 C49.77 89.07, 99.26 32.14, 126.91 0.34 M0.02 152.4 C51.18 93.55, 102.33 34.7, 132.55 -0.05 M0.02 152.4 C33.31 114.1, 66.6 75.81, 132.55 -0.05 M-0.24 158.8 C47.83 103.49, 95.91 48.19, 137.54 0.31 M-0.24 158.8 C35.31 117.9, 70.86 77.01, 137.54 0.31 M0.16 164.44 C40.44 118.09, 80.73 71.75, 143.18 -0.09 M0.16 164.44 C41.13 117.3, 82.11 70.17, 143.18 -0.09 M-0.1 170.84 C39.7 125.04, 79.51 79.25, 148.17 0.27 M-0.1 170.84 C50.76 112.32, 101.63 53.8, 148.17 0.27 M0.29 176.48 C55.9 112.51, 111.5 48.54, 153.81 -0.12 M0.29 176.48 C56.4 111.94, 112.5 47.39, 153.81 -0.12 M0.03 182.88 C61.09 112.64, 122.15 42.4, 158.8 0.24 M0.03 182.88 C35.37 142.22, 70.71 101.56, 158.8 0.24 M-0.23 189.27 C53.45 127.52, 107.14 65.76, 164.44 -0.16 M-0.23 189.27 C51.59 129.66, 103.41 70.05, 164.44 -0.16 M0.16 194.92 C58.67 127.61, 117.19 60.3, 169.43 0.2 M0.16 194.92 C63.32 122.26, 126.48 49.6, 169.43 0.2 M-0.1 201.32 C64.98 126.45, 130.06 51.58, 175.07 -0.19 M-0.1 201.32 C45.57 148.78, 91.23 96.25, 175.07 -0.19 M0.3 206.96 C54.26 144.87, 108.23 82.79, 180.06 0.17 M0.3 206.96 C67.04 130.18, 133.78 53.4, 180.06 0.17 M0.03 213.36 C73.78 128.52, 147.53 43.69, 185.7 -0.23 M0.03 213.36 C42.75 164.21, 85.47 115.07, 185.7 -0.23 M-0.23 219.75 C56.4 154.61, 113.04 89.46, 190.69 0.13 M-0.23 219.75 C55.82 155.28, 111.86 90.81, 190.69 0.13 M0.17 225.4 C39.69 179.94, 79.2 134.48, 196.33 -0.26 M0.17 225.4 C68.7 146.55, 137.24 67.71, 196.33 -0.26 M-0.09 231.8 C56.98 166.14, 114.05 100.49, 201.32 0.1 M-0.09 231.8 C63.66 158.45, 127.41 85.11, 201.32 0.1 M0.3 237.44 C58.73 170.22, 117.16 103, 206.96 -0.3 M0.3 237.44 C50.97 179.15, 101.64 120.86, 206.96 -0.3 M0.04 243.84 C65.48 168.56, 130.92 93.28, 211.95 0.06 M0.04 243.84 C67.17 166.61, 134.3 89.39, 211.95 0.06 M-0.22 250.23 C51.94 190.23, 104.1 130.22, 217.59 -0.33 M-0.22 250.23 C52.93 189.09, 106.09 127.94, 217.59 -0.33 M0.17 255.88 C71.66 173.63, 143.16 91.39, 222.58 0.03 M0.17 255.88 C60.42 186.57, 120.66 117.27, 222.58 0.03 M-0.09 262.27 C84.42 165.06, 168.92 67.85, 228.22 -0.36 M-0.09 262.27 C84.96 164.44, 170 66.61, 228.22 -0.36 M2.27 265.65 C87.65 167.44, 173.03 69.22, 233.21 0 M2.27 265.65 C61.24 197.81, 120.22 129.98, 233.21 0 M7.26 266.01 C70.33 193.46, 133.41 120.9, 238.19 0.36 M7.26 266.01 C89.74 171.13, 172.21 76.26, 238.19 0.36 M12.9 265.62 C59.56 211.95, 106.22 158.27, 243.84 -0.04 M12.9 265.62 C69.9 200.05, 126.89 134.49, 243.84 -0.04 M17.89 265.98 C74.9 200.39, 131.92 134.8, 248.82 0.32 M17.89 265.98 C69.74 206.33, 121.59 146.68, 248.82 0.32 M23.53 265.58 C85.16 194.69, 146.78 123.8, 254.47 -0.07 M23.53 265.58 C97.84 180.11, 172.14 94.63, 254.47 -0.07 M28.52 265.94 C95.46 188.94, 162.4 111.93, 259.45 0.29 M28.52 265.94 C98.08 185.93, 167.64 105.91, 259.45 0.29 M34.16 265.55 C106.35 182.5, 178.54 99.46, 265.1 -0.11 M34.16 265.55 C93.47 197.33, 152.77 129.1, 265.1 -0.11 M39.15 265.91 C108.54 186.08, 177.94 106.25, 270.08 0.25 M39.15 265.91 C88.51 209.12, 137.88 152.34, 270.08 0.25 M44.79 265.52 C134.33 162.51, 223.87 59.51, 275.73 -0.14 M44.79 265.52 C120.65 178.25, 196.51 90.98, 275.73 -0.14 M49.78 265.88 C113.8 192.23, 177.82 118.59, 280.71 0.22 M49.78 265.88 C116.46 189.17, 183.13 112.47, 280.71 0.22 M55.42 265.48 C111 201.55, 166.57 137.62, 286.36 -0.18 M55.42 265.48 C127.8 182.23, 200.17 98.97, 286.36 -0.18 M60.41 265.84 C133.95 181.24, 207.49 96.64, 291.34 0.18 M60.41 265.84 C141.86 172.15, 223.31 78.45, 291.34 0.18 M65.4 266.2 C139.46 181, 213.53 95.79, 296.99 -0.21 M65.4 266.2 C132.11 189.46, 198.82 112.71, 296.99 -0.21 M71.04 265.81 C122.46 206.65, 173.88 147.5, 301.97 0.15 M71.04 265.81 C147.76 177.55, 224.47 89.3, 301.97 0.15 M76.03 266.17 C162.57 166.62, 249.1 67.06, 307.62 -0.25 M76.03 266.17 C129.08 205.14, 182.12 144.12, 307.62 -0.25 M81.67 265.77 C147.86 189.63, 214.06 113.48, 311.29 1.62 M81.67 265.77 C139.96 198.72, 198.24 131.67, 311.29 1.62 M86.66 266.13 C142.9 201.44, 199.13 136.74, 311.03 8.02 M86.66 266.13 C134.44 211.17, 182.22 156.2, 311.03 8.02 M92.3 265.74 C160.84 186.89, 229.38 108.05, 310.77 14.42 M92.3 265.74 C145.64 204.38, 198.97 143.03, 310.77 14.42 M97.29 266.1 C161.27 192.49, 225.26 118.88, 311.16 20.06 M97.29 266.1 C143.55 212.88, 189.82 159.66, 311.16 20.06 M102.93 265.7 C185.59 170.62, 268.25 75.53, 310.9 26.46 M102.93 265.7 C171.5 186.83, 240.06 107.96, 310.9 26.46 M107.92 266.06 C182.7 180.03, 257.48 94.01, 311.3 32.1 M107.92 266.06 C172.12 192.21, 236.33 118.35, 311.3 32.1 M113.56 265.67 C180.28 188.91, 247.01 112.16, 311.03 38.5 M113.56 265.67 C160.37 211.82, 207.17 157.98, 311.03 38.5 M118.55 266.03 C157.89 220.77, 197.23 175.51, 310.77 44.9 M118.55 266.03 C173.84 202.42, 229.13 138.81, 310.77 44.9 M124.19 265.63 C167.85 215.42, 211.5 165.2, 311.17 50.54 M124.19 265.63 C197.62 181.16, 271.06 96.68, 311.17 50.54 M129.18 265.99 C176.15 211.95, 223.13 157.92, 310.91 56.94 M129.18 265.99 C167.11 222.35, 205.05 178.71, 310.91 56.94 M134.82 265.6 C184.7 208.22, 234.59 150.83, 311.3 62.58 M134.82 265.6 C191.89 199.95, 248.96 134.3, 311.3 62.58 M139.81 265.96 C187.35 211.27, 234.89 156.58, 311.04 68.98 M139.81 265.96 C183.57 215.62, 227.33 165.28, 311.04 68.98 M145.45 265.57 C208.91 192.56, 272.38 119.56, 310.78 75.38 M145.45 265.57 C187.69 216.97, 229.93 168.38, 310.78 75.38 M150.44 265.93 C200.35 208.51, 250.26 151.09, 311.17 81.02 M150.44 265.93 C199.4 209.6, 248.37 153.27, 311.17 81.02 M156.08 265.53 C208.03 205.77, 259.98 146.01, 310.91 87.42 M156.08 265.53 C204.96 209.3, 253.83 153.08, 310.91 87.42 M161.07 265.89 C206.98 213.08, 252.89 160.27, 311.31 93.06 M161.07 265.89 C211.03 208.42, 260.99 150.94, 311.31 93.06 M166.71 265.5 C200.79 226.3, 234.87 187.09, 311.04 99.46 M166.71 265.5 C214.41 210.63, 262.11 155.76, 311.04 99.46 M171.7 265.86 C214.99 216.05, 258.28 166.25, 310.78 105.86 M171.7 265.86 C201.72 231.32, 231.75 196.78, 310.78 105.86 M177.34 265.46 C215.35 221.74, 253.36 178.01, 311.18 111.5 M177.34 265.46 C207.65 230.6, 237.95 195.74, 311.18 111.5 M182.33 265.82 C217.82 224.99, 253.31 184.17, 310.92 117.9 M182.33 265.82 C224.91 216.84, 267.49 167.86, 310.92 117.9 M187.32 266.18 C234.15 212.31, 280.98 158.43, 311.31 123.54 M187.32 266.18 C215.85 233.35, 244.39 200.53, 311.31 123.54 M192.96 265.79 C222.27 232.06, 251.59 198.34, 311.05 129.94 M192.96 265.79 C234.87 217.57, 276.79 169.36, 311.05 129.94 M197.95 266.15 C233.56 225.18, 269.17 184.21, 310.79 136.34 M197.95 266.15 C228.21 231.34, 258.46 196.53, 310.79 136.34 M203.59 265.75 C244.09 219.16, 284.59 172.57, 311.18 141.98 M203.59 265.75 C231.97 233.1, 260.35 200.45, 311.18 141.98 M208.58 266.11 C249.12 219.47, 289.66 172.83, 310.92 148.38 M208.58 266.11 C246.14 222.9, 283.7 179.69, 310.92 148.38 M214.22 265.72 C244.22 231.21, 274.22 196.7, 311.32 154.02 M214.22 265.72 C246.68 228.38, 279.14 191.03, 311.32 154.02 M219.21 266.08 C239.21 243.07, 259.21 220.06, 311.05 160.42 M219.21 266.08 C242.47 239.31, 265.74 212.54, 311.05 160.42 M224.85 265.68 C258.74 226.7, 292.62 187.72, 310.79 166.82 M224.85 265.68 C254.33 231.77, 283.81 197.85, 310.79 166.82 M229.84 266.04 C252.53 239.94, 275.22 213.83, 311.19 172.46 M229.84 266.04 C258.6 232.95, 287.37 199.86, 311.19 172.46 M235.48 265.65 C256.67 241.27, 277.86 216.89, 310.93 178.86 M235.48 265.65 C263.13 233.84, 290.79 202.03, 310.93 178.86 M240.47 266.01 C267.25 235.19, 294.04 204.38, 311.32 184.5 M240.47 266.01 C268.42 233.86, 296.37 201.7, 311.32 184.5 M246.11 265.61 C266.71 241.92, 287.31 218.22, 311.06 190.9 M246.11 265.61 C270.88 237.12, 295.65 208.63, 311.06 190.9 M251.1 265.98 C263.85 251.3, 276.6 236.63, 310.8 197.3 M251.1 265.98 C263.18 252.07, 275.27 238.17, 310.8 197.3 M256.74 265.58 C275.88 243.56, 295.03 221.54, 311.19 202.94 M256.74 265.58 C271.12 249.04, 285.5 232.5, 311.19 202.94 M261.73 265.94 C280.62 244.21, 299.51 222.47, 310.93 209.34 M261.73 265.94 C276.69 248.73, 291.65 231.52, 310.93 209.34 M267.37 265.55 C281.99 248.73, 296.6 231.92, 311.33 214.98 M267.37 265.55 C284.57 245.76, 301.77 225.98, 311.33 214.98 M272.36 265.91 C287.36 248.65, 302.36 231.39, 311.06 221.38 M272.36 265.91 C284.97 251.39, 297.59 236.88, 311.06 221.38 M278 265.51 C288.12 253.87, 298.24 242.23, 310.8 227.78 M278 265.51 C285.85 256.47, 293.71 247.44, 310.8 227.78 M282.99 265.87 C289.28 258.64, 295.57 251.4, 311.2 233.42 M282.99 265.87 C294.12 253.07, 305.25 240.26, 311.2 233.42 M288.63 265.48 C293.71 259.63, 298.79 253.78, 310.94 239.82 M288.63 265.48 C297.22 255.59, 305.82 245.71, 310.94 239.82 M293.62 265.84 C300.5 257.92, 307.38 250, 311.33 245.46 M293.62 265.84 C299.58 258.98, 305.54 252.12, 311.33 245.46 M298.6 266.2 C302.83 261.33, 307.06 256.47, 311.07 251.86 M298.6 266.2 C302.41 261.82, 306.21 257.44, 311.07 251.86 M304.25 265.8 C306.1 263.67, 307.95 261.54, 310.81 258.26 M304.25 265.8 C306.07 263.7, 307.9 261.6, 310.81 258.26" stroke="#fa5252" stroke-width="0.5" fill="none"></path><path d="M0 0 C63.33 0, 126.66 0, 308.86 0 M0 0 C78.59 0, 157.18 0, 308.86 0 M308.86 0 C308.86 86.98, 308.86 173.96, 308.86 264 M308.86 0 C308.86 70.77, 308.86 141.53, 308.86 264 M308.86 264 C188.79 264, 68.73 264, 0 264 M308.86 264 C243.95 264, 179.04 264, 0 264 M0 264 C0 165.44, 0 66.88, 0 0 M0 264 C0 189.83, 0 115.67, 0 0" stroke="#000000" stroke-width="1" fill="none"></path></g></svg>